<svg xmlns="http://www.w3.org/2000/svg" width="1999px" height="1990px" transform="rotate(0) scale(1, 1)"><path d="M0 0h1999v1990H0z"/><path d="M719.191 71.254c11.545 8.04 16.402 20.525 18.833 33.985 1.827 11.639 1.315 23.501 1.214 35.246-.026 3.56-.034 7.12-.043 10.68-.024 8.265-.07 16.53-.12 24.795-.06 10.504-.11 21.008-.141 31.512q-.015 5.283-.054 10.567c-.12 15.784.17 31.286 2.12 46.961l.435 3.623c.343 2.742.745 5.463 1.19 8.19l.482 2.95c1.907 10.674 5.389 20.799 9.109 30.96A62 62 0 0 1 754 317l-2.754.516c-36.52 7.041-65.588 22.7-87.066 53.932-5.41 8.134-9.824 16.82-14.18 25.552l-2.196.028c-3.352.055-6.703.138-10.054.222l-3.453.043c-18.649.53-33.954 9.208-46.883 22.332-6.542 6.809-6.542 6.809-9.914 15.375.307 3.175.307 3.175 2.563 5.938 2.817 2.376 2.817 2.376 6.437 2.187 4.837-1.555 6.86-4.193 10.082-7.988 8.12-9.44 18.534-19.127 31.418-21.137 14.223-.92 26.637.56 38 10 7.309 6.729 11.098 14.216 11.563 24.188-.374 10.921-4.65 24.9-12.563 32.812-.213 5.605-.213 5.605 1 11 1.414.224 2.832.428 4.25.625l2.39.352c2.914.029 4.006-.236 6.36-1.977 11.212-15.905 16.145-33.62 14-53-1.5-7.507-5.255-13.379-9.61-19.59C682 416 682 416 682 412c1.207-3.15 2.852-6.087 4.438-9.062l1.366-2.58c3.73-6.856 7.948-12.567 13.196-18.358l1.438-1.863c11.088-14.356 30.326-24.177 48.045-26.869 27.664-2.947 27.664-2.947 36.01 2.298l2.382 1.997c11.59 8.867 25.746 14.225 39.938 17.25 4.692 1.748 7.674 4.687 11.187 8.187l2.191 2.121c15.847 16.343 21.54 35.762 21.265 58.06-.371 12.8-2.883 24.403-7.245 36.417-1.243 3.277-1.243 3.277-1.86 6.273-.753 2.77-1.227 4.177-3.351 6.129-3.953.944-7.778 1.273-11.82 1.57-10.173.837-19.135 6.239-26.18 13.43-7.729 10.004-12.292 21.19-11 34 2.643 13.773 7.356 24.608 19 33 11.341 6.723 22.582 8.732 35.547 6.348C868.034 577.146 877.838 571.43 884 561c5.71-11.808 8.421-24.358 4.875-37.312-1.956-5.546-4.905-10.632-7.875-15.688l.969-1.436c3.25-4.98 5.596-9.91 7.593-15.502l.9-2.48c11.593-32.885 11.288-68.758-3.364-100.438-1.52-2.97-3.294-5.74-5.147-8.51C881 378 881 378 881 376c.695-.1 1.39-.198 2.107-.3 28.57-4.2 55.402-12.37 82.638-21.823 18.619-6.46 36.857-12.21 56.255-15.877l2.325-.444c15.93-3.038 31.868-6.073 47.972-8.035 3.008-.423 5.965-.928 8.95-1.486 5.592-1.034 11.193-1.812 16.835-2.515l3.21-.405q5.26-.658 10.52-1.303l3.7-.455c21.613-2.65 43.257-4.953 64.926-7.107l2.18-.217c8.373-.834 16.747-1.65 25.123-2.438q5.268-.495 10.532-1.022c18.906-1.899 37.584-3.037 56.608-2.91 3.781.025 7.56.021 11.342.015 21.763.023 43.116 1.543 64.59 5.072l2.439.394c42.742 6.929 83.406 19.772 122.748 37.856q2.486 1.12 4.973 2.238c38.81 17.682 75.35 42.432 107.466 70.411a498 498 0 0 0 5.143 4.374c6.05 5.107 11.879 10.28 17.406 15.961 1.955 1.96 3.975 3.776 6.074 5.579 6.072 5.228 11.552 10.91 16.766 16.984 2.348 2.652 4.766 5.228 7.197 7.804 6.29 6.67 12.276 13.461 17.975 20.649a1883 1883 0 0 0 2.758 3.379c47.05 57.738 47.05 57.738 48.304 79.183-1.154 10.497-7.545 19.858-15.5 26.461-15.936 12.18-34.736 17.267-54.649 14.709-28.468-4.878-51.564-25.72-68.85-47.67-12.487-15.805-27.148-30.723-43.063-43.062a911 911 0 0 1-3.406-2.781C1478.793 489.772 1425.198 463.474 1370 443l-3.466-1.286c-15.254-5.602-30.632-10.114-46.418-13.953a765 765 0 0 1-8.604-2.163c-9.294-2.35-18.612-4.243-28.074-5.786l-2.86-.469c-16.892-2.618-33.623-3.695-50.703-3.593l-2.874.01c-90.53.381-185.494 21.228-262.001 86.24l-2.223 1.922A656 656 0 0 0 957 509l-2.32 2.04c-54.088 47.982-88.61 115.064-112.805 182.21l-.818 2.27c-3.264 9.09-6.298 18.221-9.057 27.48l-.802 2.629C802.814 818.736 797.194 910.756 813 1007l.63 3.955c5.015 31.581 11.33 62.786 19.292 93.756.914 3.577 1.755 7.17 2.594 10.766 3.41 14.437 7.391 27.999 13.484 41.523l1.415 3.186C867.55 1198.612 888.728 1235.068 915 1268l1.51 1.905c6.39 8.037 12.928 15.852 19.935 23.357a434 434 0 0 1 7.18 7.926c5.988 6.66 12.24 13.003 19.05 18.824a389 389 0 0 1 5.305 4.633c73.64 64.978 182.098 96.185 279.02 91.355 31.007-2.127 62.438-10.46 91.896-20.002 3.71-1.193 7.43-2.355 11.15-3.514l2.144-.667 4.312-1.342a4058 4058 0 0 0 8.104-2.537l3.878-1.217a652 652 0 0 1 8.499-2.612c10.534-3.153 20.896-6.81 31.28-10.419q5.214-1.812 10.429-3.617c10.194-3.535 20.382-7.082 30.542-10.714l2.286-.817 2.209-.789c52.215-18.657 52.215-18.657 71.205-10.362 14.974 7.859 24.74 19.634 30.066 35.609.8 11.667.248 20.08-7.437 29.375-15.458 17.43-53.082 24.98-74.563 32.625l-2.386.852c-23.873 8.512-47.964 15.994-72.34 22.926a863 863 0 0 0-10.47 3.058c-37.781 11.234-76.907 18.092-115.843 23.872q-2.633.392-5.267.792c-11.446 1.719-22.927 2.99-34.444 4.125l-3.767.374c-20.472 1.943-40.874 2.247-61.42 2.251h-2.227c-22.414.002-44.58-.274-66.836-3.25l-4.647-.602C1022.505 1490.076 952.635 1467.23 895 1424l-2.522-1.875c-23.438-17.458-46.638-36.613-65.615-58.98-2.004-2.307-4.075-4.537-6.161-6.769-4.948-5.298-9.71-10.675-14.249-16.333a469 469 0 0 0-5.594-6.805c-8.353-9.993-16.27-20.256-24.006-30.733a1826 1826 0 0 0-5.455-7.33c-8.094-10.864-15.833-21.937-23.398-33.175l-2.543-3.754c-52.022-77.1-94.429-161.078-141.295-294.558a1581 1581 0 0 0-3.084-9.66c-7.802-24.538-13.792-49.769-18.517-75.068a759 759 0 0 0-1.795-9.108c-8.525-42.463-12.557-85.37-15.516-128.54l-.179-2.595c-1.598-23.512-2.234-46.992-2.238-70.556q-.002-3.113-.006-6.224-.014-10.984-.012-21.967 0-8.927-.02-17.854c-.091-39.204.085-78.3 3.717-117.374.374-4.159.65-8.315.883-12.484.84-14.913 2.25-29.635 4.168-44.445l.339-2.634q.481-3.705.977-7.41l.296-2.249c.406-2.968.875-5.67 1.825-8.52.163-2.143.274-4.29.36-6.437q.09-2.044.184-4.087l.1-2.202c1.326-28.39 4.595-56.754 9.461-84.754.73-4.265 1.26-8.531 1.758-12.829 1.229-10.274 3.178-20.41 5.137-30.566l.59-3.077C620.78 136.908 620.78 136.908 665 87l2.223-2.543c13.244-14.235 33.526-23.756 51.968-13.203" fill="#1e59ac"/><path d="M1344.02 498.027c3.184 1.04 6.375 2.053 9.566 3.067 24.042 7.729 46.828 17.646 69.414 28.906l2.605 1.296c28.837 14.467 55.703 32.986 80.395 53.704.96.773 1.918 1.547 2.906 2.344 8.447 6.91 16.18 14.526 23.907 22.218.535.531 1.07 1.062 1.623 1.608 6.993 6.94 13.457 14.081 19.564 21.83q1.723 2.12 3.45 4.238c33.545 41.902 53.065 91.425 67.863 142.512l.592 2.039a1615 1615 0 0 1 6.664 23.526c13.346 48.57 28.37 97.891 60.431 137.685l1.333 1.68c11.055 13.858 23.627 26.47 37.893 37.008 1.865 1.38 3.712 2.78 5.56 4.183 6.806 5.126 13.603 9.74 21.116 13.79.693.441 1.385.883 2.098 1.339v2c-18.686 6.832-37.236 12.377-57 15l-2.064.294c-8.234 1.012-16.522.856-24.804.836-2.626-.005-5.252 0-7.878.007-8.15.003-16.157-.083-24.254-1.137l.04 1.72c1.157 92.132-47.373 185.668-110.248 250.558-16.591 16.995-16.591 16.995-25.218 23.706-2.414 1.89-4.73 3.867-7.04 5.881-50.363 43.686-131.868 85.308-200.534 84.135.518-6.37 2.11-11.557 4.563-17.437l1.088-2.651c17.19-41.4 43.16-80.664 79.349-107.912l1.83-1.406c21.203-16.222 44.45-28.527 69.045-38.719 38.326-15.894 61.804-45.323 80.793-80.863 21.644-40.378 48.871-85.892 85.332-115.012l2.715-2.176L1629 1016l-1.699-.332c-24.797-4.926-48.226-12.34-71.301-22.668l-2.697-1.194c-19-8.482-37.283-18.825-54.303-30.806l-3.996-2.762c-17.114-11.884-33.095-24.95-48.502-38.971a529 529 0 0 0-4.725-4.233c-6.354-5.633-12.411-11.514-18.4-17.527a1786 1786 0 0 0-4.719-4.712c-4.9-4.897-9.706-9.834-14.211-15.103-2.046-2.392-4.186-4.693-6.322-7.005-4.44-4.874-8.64-9.897-12.78-15.028-2.76-3.404-5.556-6.778-8.345-10.159-3.89-4.717-7.77-9.442-11.625-14.187a606 606 0 0 0-26.733-30.553 1083 1083 0 0 1-5.31-5.744c-7.465-8.086-15.12-15.692-23.332-23.016q-2.198-2.055-4.391-4.114c-6.328-5.911-13.007-11.26-19.87-16.533a241 241 0 0 1-4.895-3.927C1249.898 722.168 1213.719 702.893 1176 690l-2.57-.882c-18.821-6.332-38.692-10.085-58.43-12.118l-3.168-.336c-26.466-2.34-53.309-.591-79.29 4.747l-3.257.663-2.879.612C1024 683 1024 683 1021 682c56.073-41.836 121.295-72.596 192.423-72.26 2.707.01 5.413 0 8.12-.013 10.653-.01 20.928.611 31.457 2.273l2.727.426c60.52 10.176 115.8 42.199 160.691 83.238a155 155 0 0 0 4.133 3.642c6.86 5.819 13.14 12.234 19.485 18.6q3.034 3.039 6.075 6.069c6.173 6.17 12.292 12.32 17.889 19.025q1.314 1.516 2.633 3.027c6.985 8.158 13.521 16.61 19.995 25.176A297 297 0 0 0 1492 778c-12.87-22.558-26.877-44.608-43-65l-1.588-2.016c-6.34-8.015-12.88-15.772-19.853-23.242a449 449 0 0 1-7.246-7.992c-5.653-6.286-11.536-12.228-17.958-17.73a432 432 0 0 1-5.304-4.633c-39.756-35.035-87.114-57.974-138.738-69.2l-2.017-.446c-19.34-4.243-38.604-5.12-58.358-5.053l-3.252.003c-15.515.033-30.725.532-46.084 2.912-2.387.364-4.77.668-7.168.948-60.55 7.598-124.173 34.482-168.95 76.152-2.137 1.977-4.318 3.863-6.546 5.735-13.484 11.81-24.11 27.07-32.938 42.562l-1.167 2.028C916.529 739.916 908.127 769.473 904 800l-.36 2.635c-1.597 12.371-1.818 24.723-1.827 37.178l-.004 2.205a364 364 0 0 0 3.441 50.107c.11.802.218 1.604.33 2.43 1.716 12.517 3.843 24.857 6.856 37.136.518 2.12 1.007 4.245 1.486 6.375C931.774 1014.408 973.45 1084.223 1029 1139c-12.03 0-27.75-18.575-36.215-26.434a270 270 0 0 0-7.035-6.254c-6.103-5.307-11.653-11.07-16.918-17.203-1.985-2.285-4.032-4.506-6.082-6.734-5.583-6.204-10.7-12.737-15.75-19.375l-1.646-2.162C930.688 1041.481 917.94 1021.137 906 1000l-1.41-2.479c-21.498-38.086-34.29-82.57-36.404-126.3-.154-2.303-.154-2.303-.691-4.866-.66-4.474-.677-8.87-.698-13.386l-.021-2.958q-.025-4.755-.026-9.511l-.003-3.275c.011-17.596.72-34.79 3.253-52.225l.438-3.064c.989-6.689 2.2-13.314 3.562-19.936l.572-2.831c12.849-62.068 41.873-124.1 85.166-170.724a211 211 0 0 0 5.7-6.445c6.894-7.919 14.493-15.289 22.562-22l1.627-1.366C1036.249 519.604 1092.01 493.977 1152 484l2.457-.42c62.238-10.562 129.587-5.155 189.564 14.447" fill="#90bc18"/><path d="m886.25 81.688 2.076.007c10.212.057 19.802.45 29.674 3.305l2.44.7c33.379 9.783 60.969 30.622 77.837 61.374 16.27 30.8 19.38 64.969 9.438 98.332C1001.56 264.8 990.905 281.256 977 296l-1.855 2.05C957.618 316.7 932.819 327.6 908 332l-3.168.582C868.553 336.539 835.521 327.583 807 305c-7.626-6.277-14.032-13.141-20-21l-1.797-2.32c-8.85-11.977-15.219-25.37-19.203-39.68l-.59-1.903c-9.233-30.046-3.825-64.355 10.34-91.847 4.333-8.122 9.278-15.245 15.25-22.25l2.36-2.852c23.157-26.865 57.809-41.613 92.89-41.46" fill="#1e59ac"/><path d="M867 1006c11.277 1.812 22.13 14.322 30 22l1.886 1.824c7.913 7.673 15.352 15.453 22.114 24.176q1.545 1.92 3.094 3.836c20.477 25.557 37.579 54.033 52.98 82.894 5.675 10.635 11.397 20.832 18.926 30.27l1.405 1.763c18.212 22.561 39.74 36.48 66.406 47.39 39.144 16.123 76.345 41.92 102.189 75.847l1.315 1.722c6.422 8.45 12.37 17.08 17.685 26.278l1.167 2.01c8.44 14.63 15.986 29.59 21.896 45.428l.906 2.421.816 2.262.715 1.982c.5 1.897.5 1.897.5 5.897-59.237 1.446-126.807-30.898-174-64l-1.62-1.126c-17.172-11.953-33.87-24.926-48.466-39.96-1.775-1.775-3.602-3.381-5.539-4.976-3.085-2.588-5.641-5.425-8.242-8.493-2.174-2.492-4.426-4.89-6.7-7.29C922.328 1211.478 890.75 1149.541 877 1087l-.597-2.681c-5.697-25.811-10.02-51.818-9.403-78.319m770.313 10.25 2.244.2c1.816.163 3.63.354 5.443.55 1.854 90.761-44.65 184.393-106.148 249.073-19.568 20.358-19.568 20.358-29.278 27.911-2.414 1.89-4.73 3.867-7.04 5.881-50.363 43.686-131.868 85.308-200.534 84.135.518-6.37 2.11-11.557 4.563-17.437l1.088-2.651c17.19-41.4 43.16-80.664 79.349-107.912l1.83-1.406c21.203-16.222 44.45-28.527 69.045-38.719 38.326-15.894 61.804-45.323 80.793-80.863 21.644-40.378 48.871-85.892 85.332-115.012l2.195-2.191c3.77-2.431 6.845-2.04 11.118-1.559" fill="#db8700"/><path d="m1171 757 2.255.795c28.096 10.11 53.534 25.298 75.745 45.205l3 2.633c23.913 21.208 40.257 46.312 53.664 75.07 7.124 15.252 7.124 15.252 16.336 29.297l1.953 2.582A248 248 0 0 0 1330 920l2.117 2.527c12.571 14.518 32.22 29.486 51.883 32.473v2c-22.346 5.939-46.332 8.088-69.016 2.487-2.132-.523-4.272-.985-6.418-1.448-26.541-6.041-50.871-19.576-71.566-37.039l-3.582-2.969c-6.606-5.526-12.752-11.302-18.785-17.449-4.281-4.198-8.927-7.875-13.633-11.582q-1.606-1.307-3.207-2.617c-19.769-16.042-41.862-28.744-65.72-37.603a169 169 0 0 1-5.07-2.018c-23.147-9.353-57.45-13.095-81.003-3.762-13.093 5.66-22.287 13.435-29 26l-2 3c-.429-10.713-.57-20.05 4-30l1.285-2.824c8.917-17.809 25.315-28.186 43.668-34.582 13.513-4.484 26.425-5.981 40.61-5.907l2.276.008c29.312.15 60.745 6.975 83.161 27.305a360 360 0 0 0-6-8l-1.465-1.926c-16.477-20.25-41.593-29.022-66.535-33.074l-2.941-.562c-26.848-3.84-57.006 2.51-81.059 14.562l-1.839.917c-9.495 4.84-17.326 10.926-25.161 18.083l-2.203 1.953c-26.894 25.145-40.524 67.176-42.086 103.25-.145 5.224-.134 10.446-.086 15.672l.015 2.783c.157 24.67 2.869 49.846 12.141 72.975C974 1016 974 1016 973 1019c-19.701-47.277-33.628-97.59-24-149l.406-2.251c6.674-35.898 29.302-66.701 58.956-87.281C1055.91 748.31 1116.195 737.506 1171 757" fill="#dbde01"/><path d="M899.875 1431.5A344 344 0 0 1 906 1437l2.344 2.129c15.715 14.96 24.405 35.732 25.227 57.195.527 32.556-14.526 59.773-36.571 82.676l-1.758 1.95c-14.76 15.91-37.17 26.431-58.722 27.425-28.607.765-53.235-9.152-74.037-28.869-14.907-14.573-26.03-34.554-26.784-55.768a320 320 0 0 1-.011-5.426c.005-.96.01-1.922.017-2.912.505-29.928 16.006-57.073 36.759-77.93 35.741-34.207 88.876-38.656 127.411-5.97" fill="#1e59ac"/><path d="M1054 948c2.083 2.083 2.723 3.429 3.813 6.121l1.053 2.555 1.134 2.761c18.418 43.75 49.055 86.14 86.531 115.602 4.34 3.447 8.38 7.223 12.469 10.961l2.977 2.66c6.43 5.765 12.45 11.73 18.023 18.34l1.358 1.607c27.24 32.487 44.664 69.58 51.642 111.393l.535 3.18c.559 4.592.683 9.108.738 13.73l.038 2.887c.232 21.965-.321 42.716-5.311 64.203l-.599 2.692c-1.244 5.51-2.73 10.913-4.401 16.308l-.871 2.817A377 377 0 0 1 1208 1366h-1l-.332-3.2c-.429-4.055-.888-8.107-1.36-12.157q-.299-2.56-.584-5.122c-5.634-49.454-26.814-95.85-57.724-134.521l-2.172-2.781c-7.226-9.197-14.707-18.452-23.162-26.552-1.618-1.62-3.08-3.298-4.553-5.05-5.377-6.186-11.287-11.86-17.113-17.617-14.271-14.104-14.271-14.104-20-21l-1.365-1.616c-32.355-38.732-48.844-86.192-44.358-136.488 2.327-18.44 9.852-36.275 19.723-51.896m399 0c2.501 2.256 3.887 4.436 5.34 7.465l1.277 2.654 1.32 2.818 1.36 2.899c3.063 6.614 5.892 13.086 7.703 20.164l.538 1.956c11.352 42.297-.925 85.573-21.734 122.663-7.644 13.237-17.014 26.023-28.045 36.621-1.655 1.656-3.152 3.364-4.657 5.155-5.907 6.798-12.449 13.006-18.85 19.333-6.315 6.247-12.503 12.491-18.252 19.272a1315 1315 0 0 1-4.25 4.625c-5.586 6.202-10.687 12.745-15.75 19.375l-1.352 1.753c-8.372 10.9-15.655 22.422-22.648 34.247l-1.191 2.014c-6.838 11.742-11.866 24.358-16.809 36.986l-.915 2.322c-3.997 10.37-6.452 21.096-8.835 31.928l-.452 2.048c-2.57 11.751-4.687 23.556-5.423 35.577l-.227 3.555-.148 2.57c-2.969-1.484-3.178-3.53-4.355-6.598-.455-1.182-.91-2.365-1.377-3.584l-1.456-3.88-.742-1.968c-7.082-18.809-12.948-38.206-16.695-57.97l-.727-3.75c-9.395-57.236 4.141-115.765 37.832-162.75a357 357 0 0 1 6.52-8.5l1.805-2.387c12.23-15.878 26.895-29.804 42.46-42.355 13.81-11.403 26.666-24.191 37.735-38.258q2.155-2.563 4.313-5.125c9.678-11.858 18.14-24.573 25.687-37.875l1.406-2.457A332 332 0 0 0 1453 948" fill="#c41a0b"/><path d="M1317 1504c2.053 9.01 3.67 17.957 4.813 27.125a8211 8211 0 0 0 1.292 10.016 2135 2135 0 0 0 2.344 17.468l.383 2.779.776 5.64a3056 3056 0 0 1 5.994 45.932c1.147 9.283 2.48 18.528 3.892 27.773 1.598 10.584 2.916 21.198 4.2 31.824l.474 3.904.415 3.462c.26 1.915.572 3.824.965 5.716.668 3.492.512 6.811.452 10.361-28.117 3.25-28.117 3.25-42 3-7.885-50.45-13.288-101.17-18-152l-.44 2.597c-4.381 25.73-9.082 51.409-15.653 76.683-2.156 8.42-3.883 16.932-5.656 25.44-3.444 16.499-7.318 32.891-11.251 49.28-3.958.34-7.916.67-11.875 1l-3.36.29c-1.643.134-1.643.134-3.32.273l-3.015.253c-4.48.24-8.945.22-13.43.184l-1.307-3.616-3.925-10.859-4.589-12.704a4517 4517 0 0 0-11.449-31.403c-10.274-27.847-19.618-55.862-27.73-84.418a37912 37912 0 0 0 .942 33.48c.484 17.061.979 34.121 1.636 51.176l.14 3.642q.322 8.313.672 16.624c.613 15.031.71 30.036.61 45.078-11.888 1.571-23.71 3.03-35.723 3.01l-2.996-.005L1129 1713l-.031-2.67a61597 61597 0 0 0-.44-36.514c-.264-21.691-.568-43.379-1.091-65.066-.727-30.243-.53-60.5-.438-90.75q10.702-.86 21.405-1.709 3.64-.29 7.277-.582 5.239-.42 10.478-.834l3.271-.265c5.208-.409 10.345-.714 15.569-.61a15838 15838 0 0 1 16.86 43.207c10.963 28.174 21.107 56.635 29.14 85.793a557 557 0 0 0 3.629-19.45c3.888-22.75 8.371-45.23 13.75-67.673a749 749 0 0 0 3.64-16.1 2069 2069 0 0 0 2.278-10.658c1.52-7.217 3.199-14.177 5.703-21.119 19-2.559 37.812-4.399 57-4" fill="#1e59ac"/><path d="M972 1485c7.236-.204 14.046.552 21.188 1.688l3.438.539c10.915 1.766 21.645 4.117 32.374 6.773l2.142.515c22.676 5.468 46.397 13.924 59.92 34.11 1.018 1.77 2.002 3.56 2.938 5.375l1.086 2.059c5.27 12.4 2.217 28.705-2.086 40.941-5.857 13.435-16.783 21.58-30 27-3.303 1.159-6.598 2.177-10 3 0 2.81 1.232 3.399 3.188 5.375 10.502 11.8 11.079 27.8 11.19 42.863l.052 3.654c.053 3.807.094 7.613.132 11.42q.066 5.738.143 11.475.048 3.551.08 7.102c.073 5.79.352 11.384 1.215 17.111-9.14-1.734-18.173-3.692-27.176-6.04a148 148 0 0 0-7.43-1.67c-2.92-.594-5.632-1.172-8.394-2.29-1.687-2.875-1.687-2.875-2-6l-.51-2.377c-.492-2.632-.628-5.04-.648-7.714l-.03-2.995-.023-3.207-.086-6.787q-.063-5.325-.104-10.65a1772 1772 0 0 0-.122-10.313l-.01-3.177c-.148-8.93-1.465-17.805-7.467-24.78-6.376-5.897-19.384-10-28-10l-.791 3.364c-5.481 23.281-11.1 46.51-17.209 69.636-9.214-1.467-18.176-3.753-27.187-6.125l-4.33-1.129Q932.238 1672.38 927 1671c.482-8.222 2.305-15.895 4.387-23.844l1.028-4.007q1.353-5.265 2.72-10.525a7624 7624 0 0 0 4.814-18.655l.534-2.077c2.25-8.757 4.4-17.53 6.396-26.349 3.94-17.405 8.344-34.697 12.688-52.005q1.38-5.508 2.757-11.018a23946 23946 0 0 1 3.944-15.759l1.764-7.035.517-2.067A361 361 0 0 1 972 1485m-296-326 .88 1.639c6.63 12.326 13.44 24.51 20.662 36.502l1.72 2.894 1.53 2.543c1.28 2.565 1.994 4.561 2.208 7.422-1.898 2.506-3.72 4.556-5.937 6.75l-3.907 4.02-2.074 2.104c-3.396 3.468-6.702 7.02-10.02 10.563q-2.026 2.153-4.054 4.305c-5.727 6.082-11.438 12.178-17.15 18.274q-5.617 5.994-11.235 11.986-4.67 4.98-9.338 9.963a12628 12628 0 0 1-21.302 22.677c-7.006 7.442-13.995 14.9-20.983 22.358l-3.71 3.96-1.865 1.99q-1.85 1.975-3.704 3.945a1202 1202 0 0 0-10.116 10.89l-2.203 2.385a726 726 0 0 0-4.212 4.6l-1.924 2.074-1.695 1.85C566 1356 566 1356 563 1356l-1.158-2.073-3.416-6.108q-1.929-3.45-3.852-6.902c-4.09-7.328-4.09-7.328-8.355-14.554l-1.162-1.933a491 491 0 0 0-2.995-4.856C541 1317 541 1317 541.705 1315.078c1.44-2.308 3.016-4.008 4.964-5.906l2.209-2.176 2.31-2.246c4.97-4.852 9.757-9.744 14.28-15.018 2.484-2.806 5.303-5.222 8.127-7.677 1.696-2.02 1.696-2.02 1.201-4.795-.884-3.624-2.233-6.259-4.111-9.479l-1.015-1.757a889 889 0 0 0-3.231-5.524q-1.05-1.804-2.096-3.61a3699 3699 0 0 0-4.198-7.214l-1.059-1.816-2.237-3.83q-1.694-2.902-3.375-5.811l-1.058-1.803C550 1232.228 550 1232.228 550 1230l-2.697.723c-8.933 2.39-17.87 4.766-26.832 7.052q-2.125.544-4.246 1.102a814 814 0 0 1-6.264 1.611l-3.694.955c-3.296.562-5.172.805-8.267-.443-1.742-2.218-1.742-2.218-3.305-5.145l-1.77-3.244-1.8-3.424-3.555-6.582-1.76-3.287c-2.822-5.174-5.806-10.248-8.81-15.318 2.754-2.754 5.107-2.84 8.918-3.629l2.157-.455q2.327-.49 4.656-.97c4.222-.873 8.439-1.772 12.656-2.669l2.658-.564c9.179-1.956 18.317-4.078 27.455-6.213a2097 2097 0 0 1 38-8.5c13.528-2.892 27.016-5.93 40.49-9.065a3790 3790 0 0 1 41.842-9.46l2.193-.485 5.835-1.285c1.762-.396 3.52-.812 5.258-1.3 2.324-.5 4.513-.47 6.882-.405M374 886c19.143-.198 38.203.32 57.325 1.179 3.804.17 7.608.332 11.412.495q10.793.465 21.586.942a41944 41944 0 0 0 38.467 1.676q6.696.29 13.391.586c19.936.882 39.872 1.568 59.819 2.122l1.429 4.258.803 2.396c1.106 3.38 2.077 6.791 3.018 10.221l.614 2.237q1.072 3.942 2.136 7.888l.927 3.398a2431 2431 0 0 1 2.948 10.977l.978 3.585.89 3.376.807 3.017c.463 2.72.581 4.141-.55 6.647-1.648 1.365-1.648 1.365-3.805 2.594l-2.426 1.413-2.644 1.493q-2.776 1.614-5.547 3.234l-2.846 1.655c-4.01 2.364-7.935 4.854-11.857 7.361-7.478 4.759-15.008 9.427-22.562 14.063a3724 3724 0 0 0-28.624 17.753c-7.241 4.533-14.5 9.037-21.768 13.527a4050 4050 0 0 0-19.608 12.22 4560 4560 0 0 1-26.063 16.187l-3.17 1.958A880 880 0 0 1 418 1057a3484 3484 0 0 1-2.715-10.168c-.94-3.547-1.895-7.09-2.851-10.633l-1.622-6.074-.793-2.914c-1.525-5.754-2.513-11.278-3.019-17.211l13.512-8.22c4.995-3.036 9.984-6.08 14.953-9.159l2.493-1.54q2.32-1.434 4.631-2.88C447.777 985 447.777 985 450 985q-1.62-7.032-3.25-14.062l-.485-2.09c-1.997-8.591-4.036-17.156-6.44-25.645-.72-2.795-1.317-5.573-1.877-8.403l-.54-2.725L437 930l-1.661.007q-8.59.032-17.18.048-3.202.008-6.405.02c-3.075.013-6.151.018-9.227.023l-2.873.015c-4.997 0-9.729-.257-14.654-1.113-4.209-12.673-7.147-25.647-10.039-38.671l-.545-2.457zm1066 575c1.596 1.575 1.596 1.575 3.137 3.613l1.734 2.263 1.816 2.437 1.903 2.5c1.814 2.388 3.614 4.786 5.41 7.187l2.355 3.125a1539 1539 0 0 1 4.125 5.516c2.683 3.592 5.411 7.149 8.135 10.71 5.926 7.75 11.805 15.53 17.572 23.399 5.92 8.073 11.966 16.04 18.066 23.977 9 11.713 17.932 23.469 26.664 35.383 4.362 5.94 8.81 11.808 13.301 17.65 5.659 7.365 11.224 14.8 16.782 22.24-2.114 2.114-3.314 2.626-6.083 3.604l-2.547.91-2.753.963-2.816 1c-2.974 1.055-5.95 2.101-8.926 3.148l-6.043 2.14q-7.413 2.627-14.832 5.235c-2.963-2.887-5.701-5.731-8.129-9.082l-1.681-2.303-1.753-2.428a6813 6813 0 0 0-5.575-7.654 554 554 0 0 0-5.444-7.267l-1.683-2.216a992 992 0 0 0-3.179-4.149C1486 1598.22 1486 1598.22 1486 1596l-2.405.883A14596 14596 0 0 1 1434 1615l.114 1.661q.587 8.59 1.168 17.18.216 3.202.436 6.405.316 4.613.626 9.227l.199 2.873c.326 4.898.528 9.745.457 14.654q-8.22 2.967-16.443 5.927-2.796 1.006-5.593 2.016-4.02 1.45-8.042 2.897c-.833.3-1.665.602-2.523.912l-2.365.85-2.072.746c-1.97.655-3.942 1.175-5.962 1.652-1.41-20.96-2.494-41.916-3.319-62.907-.278-7.077-.568-14.153-.858-21.23l-.192-4.67a4311 4311 0 0 0-1.756-39.005l-.116-2.38c-.32-6.481-.646-12.953-1.279-19.413-.64-6.62-.834-13.25-1.043-19.895l-.13-3.703c-.336-10.268-.35-20.525-.307-30.797l37.207-13.184 3.135-1.11 2.911-1.032 2.564-.908c5.88-2.063 5.88-2.063 9.183-.766M368 541a782 782 0 0 1 31.126 2.385c4.598.442 9.197.874 13.796 1.306l3.175.299c10.012.936 20.028 1.832 30.044 2.725l5.138.458q10.324.922 20.648 1.837c17.494 1.548 34.982 3.119 52.445 4.994 11.524 1.231 23.071 2.14 34.628 2.996 3.671 16.468.96 35.4-.25 52.125-.055.813-.11 1.626-.165 2.463-1.612 23.52-6.523 49.797-24.429 66.635C518.79 691.89 501.146 693.373 482 692c-10.067-1.504-18.92-5.9-27-12l-2.203-1.617C439.73 667.959 433.333 650.077 431 634c-.19-4.327-.186-8.653-.185-12.983-.002-2.05-.02-4.099-.04-6.148-.034-8.46.655-16.55 2.225-24.869l-2.239.068c-10.765.173-21.373-.746-32.086-1.722q-4.695-.425-9.392-.836l-6.03-.537-2.806-.25c-14.004-1.28-14.004-1.28-15.447-2.723a127 127 0 0 1-.187-7.187v-2.243c.107-10.96.293-22.95 3.187-33.57" fill="#1e59ac"/><path d="M1293.674 971.28c3.66 3.035 7.005 6.323 10.326 9.72l1.797 1.7c11.954 12.243 15.522 30.331 15.588 46.726-.318 17.9-8.18 33.22-20.56 45.879-7.077 6.753-14.823 11.003-23.825 14.695l-2.45 1.074c-6.815 2.474-14.022 2.178-21.175 2.238l-3.371.088c-16.287.124-31.076-6.982-42.82-18.07-7.73-7.636-13.4-16.153-17.184-26.33l-.969-2.586c-4.935-15.948-3.28-34.65 3.719-49.602 3.977-7.538 8.999-14.018 15.25-19.812l1.523-1.574c21.853-21.233 60.088-22.558 84.15-4.145" fill="#c41a0b"/><path d="M742 1273c4.194 1.537 6.296 4.608 8.875 8.063q1.455 1.902 2.918 3.8l1.564 2.034c2.872 3.676 5.853 7.262 8.83 10.853 4.278 5.171 8.528 10.359 12.704 15.613 2.784 3.481 5.605 6.932 8.422 10.387a869 869 0 0 1 13.426 16.868 282 282 0 0 0 8.093 9.894l1.969 2.322a408 408 0 0 0 3.869 4.482l1.752 2.067 1.58 1.825c.998 1.792.998 1.792.832 3.863-1.42 3.282-4.408 5.045-7.209 7.117q-1.908 1.45-3.812 2.906l-1.934 1.465c-2.802 2.15-5.527 4.384-8.254 6.629l-2.71 2.23L791 1387c-2.976-1.31-4.765-2.586-6.777-5.133l-1.537-1.92-1.624-2.072-3.476-4.36-1.794-2.263c-2.838-3.567-5.723-7.095-8.605-10.627a1716 1716 0 0 1-12.265-15.238 410 410 0 0 0-4.406-5.367L748 1337l-2.312-2.75C744 1332 744 1332 744 1330c-3.551 2.031-6.673 4.255-9.812 6.875l-2.864 2.375-1.58 1.313a765 765 0 0 1-5.912 4.812l-2.17 1.754-4.267 3.44-1.989 1.61-1.771 1.43c-1.633 1.39-3.14 2.854-4.635 4.391l1.363 1.477c4.62 5.09 8.93 10.376 13.144 15.803 3.766 4.834 7.642 9.567 11.556 14.283A598 598 0 0 1 752 1411c-4.198 4.38-8.747 8.22-13.437 12.063l-2.237 1.853c-3.98 3.273-7.976 6.32-12.326 9.084-6.045-7.039-11.958-14.148-17.653-21.474-4.364-5.594-8.88-11.058-13.405-16.523-4.075-4.93-8.078-9.905-11.942-15.003-2.878 1.331-5.192 2.833-7.617 4.871l-2.067 1.723-2.191 1.843c-5.319 4.431-10.658 8.817-16.125 13.063-6.087 4.734-12.042 9.617-17.965 14.555A303 303 0 0 1 621 1428c-3.14-1.363-4.953-2.807-7.102-5.457l-1.722-2.106-1.801-2.25-1.86-2.29A757 757 0 0 1 593 1396c1.553-4.08 4.463-6.378 7.75-9.062l1.751-1.456c4.596-3.799 9.279-7.484 13.984-11.144 4.741-3.698 9.386-7.502 14.015-11.338 5.115-4.237 10.259-8.42 15.5-12.5 6.078-4.731 12.027-9.609 17.963-14.517a894 894 0 0 1 13.385-10.862c3.567-2.853 7.109-5.738 10.652-8.621a1980 1980 0 0 1 15.313-12.344c3.575-2.869 7.13-5.763 10.687-8.656a2302 2302 0 0 1 18-14.5l5.625-4.5z" fill="#1e59ac"/><path d="M971 1702c27.384-2.096 61.306 5.923 82.648 23.742 8.96 8.602 16.3 20.681 16.59 33.336.38 20.74-2.586 40.329-16.738 56.485a198 198 0 0 1-4.5 4.437l-1.96 1.984c-13.548 12.94-32.434 13.833-50.161 13.43-17.78-.799-35.046-5.94-51.879-11.414.7-8.647 2.627-16.988 4.5-25.437q.813-3.703 1.622-7.406l1.134-5.177a3168 3168 0 0 0 4.03-18.664l.57-2.678 1.139-5.348c2.932-13.759 5.91-27.505 9.005-41.227l.448-1.993c2.375-10.538 2.375-10.538 3.552-14.07m-436-307c11.826 9.626 22.05 20.68 31 33l1.349 1.853c6.19 8.614 11 17.137 14.651 27.147l.805 2.125c2.898 9.211 2.16 20.76-.805 29.875l-.777 2.414c-6.246 17.316-20.86 30.669-37.197 38.537-13.954 6.292-29.678 8.971-44.463 3.924-22.604-9.222-38.605-27.525-52.563-46.875l-1.36-1.861c-6.614-9.111-6.614-9.111-6.69-12.147 1.604-3.041 4.104-4.935 6.738-7.054l1.762-1.454c4.645-3.81 9.366-7.525 14.105-11.217 4.53-3.53 8.996-7.134 13.445-10.767a991 991 0 0 1 16.71-13.336c4.474-3.502 8.889-7.072 13.29-10.664 9.847-8.03 19.785-15.94 30-23.5" fill="#61c9d1"/><path d="M599 987c2.643 2.643 3.472 3.62 4.748 6.867l.952 2.385 1.019 2.623 1.11 2.8q1.207 3.045 2.403 6.095c1.738 4.426 3.492 8.846 5.245 13.266q1.432 3.61 2.86 7.22c5.668 14.315 11.427 28.592 17.186 42.87q2.21 5.478 4.416 10.958l4.973 12.34c3.362 8.342 6.739 16.676 10.246 24.958C656 1123.784 656 1123.784 656 1126q-6.268 2.544-12.543 5.072-2.132.86-4.262 1.726-3.07 1.244-6.144 2.48l-1.91.78A52 52 0 0 1 621 1139q-4.065-9.983-8.118-19.97a6654 6654 0 0 0-2.764-6.799q-1.985-4.875-3.962-9.754l-1.26-3.085-1.152-2.85-1.023-2.517C602 1092 602 1092 602 1090l-3.187 1.406c-13.068 5.708-26.283 11.022-39.53 16.296a9291 9291 0 0 0-36.431 14.607l-2.42.975q-10.98 4.426-21.96 8.857a31180 31180 0 0 1-15.981 6.447c-8.8 3.554-17.621 7.037-26.491 10.412a436 436 0 0 1-10.132-23.628 901 901 0 0 0-2.29-5.692l-1.445-3.649-1.316-3.295C440 1110 440 1110 441 1107c2.85-1.387 5.642-2.58 8.59-3.727l2.82-1.128c3.172-1.267 6.35-2.518 9.527-3.77l6.763-2.697q5.623-2.245 11.25-4.482c16.184-6.43 32.335-12.943 48.49-19.45q8.348-3.362 16.7-6.719l15.517-6.238 6.846-2.752 2-.803a267 267 0 0 0 9.278-3.924C582 1050 582 1050 585 1050a24962 24962 0 0 0-5.75-14.663c-2.563-6.536-5.133-13.07-7.762-19.58l-1.123-2.781q-1.034-2.556-2.078-5.108c-2.287-5.65-2.287-5.65-2.287-7.868z" fill="#1e59ac"/><path d="M552 713q.656 5.782 1.282 11.566.318 2.904.652 5.807c.96 8.936 1.239 17.653 1.066 26.627-24.125 2.61-48.27 4.842-72.45 6.886-14.69 1.242-29.36 2.546-44.016 4.155-13.144 1.407-26.34 2.177-39.534 2.959l.345 2.102c1.814 11.792 2.854 23.655 3.942 35.531q.51 5.533 1.033 11.064l.657 7.104.312 3.305c.542 5.995.814 11.875.711 17.894-4.562 1.52-9.225 1.656-14 2.063l-3.004.275-2.996.26-2.687.234c-4.771.242-9.537.199-14.313.168q-1.515-16.002-3.026-32.004l-1.405-14.87c-3.585-37.858-3.585-37.858-4.827-52.188l-.241-2.678c-.512-6.095-.579-12.146-.501-18.26 7.68-1.377 15.298-2.416 23.074-3.043l3.18-.27q3.418-.29 6.837-.574c6.325-.528 12.648-1.073 18.971-1.62l2.035-.177c16.59-1.437 33.164-3.042 49.739-4.65 21.798-2.114 43.596-4.205 65.414-6.104l2.893-.253q3.936-.345 7.873-.68l2.267-.198c3.583-.3 7.121-.502 10.717-.431" fill="#1e59ac"/><path d="M871.125 1453.625c8.937 5.696 15.752 14.346 18.484 24.68 3.001 20.706-3.685 39.76-15.547 56.57-11.3 14.722-26.627 31.321-46.062 34.125-14.13 1.002-24.621-1.071-36-10-9.344-9.313-13.196-19.975-13.312-33 0-19.464 10.085-36.496 22.312-51 .73-.895 1.462-1.79 2.215-2.71 17.041-20.032 43.2-32.164 67.91-18.665"/><path d="M1344 1717c2.958 15.527 4.6 31.215 6.329 46.915q1.097 9.948 2.212 19.894a51193 51193 0 0 1 4.38 39.347q.375 3.375.741 6.749.334 3.06.688 6.12l.306 2.758.275 2.407.069 1.81c-2.69 2.69-9.61 2.189-13.25 2.625l-3.473.445-3.355.407-3.075.377c-2.893.148-5.083.008-7.847-.854a70 70 0 0 1-5.5-6.875l-1.564-2.15c-4.486-6.214-8.789-12.557-13.079-18.906a317 317 0 0 0-10.857-15.006c-6.875-9.002-12.943-18.5-19-28.063l-2.598-4.055q-1.109-1.752-2.215-3.507l-1.894-3.004C1270 1762 1270 1762 1270 1759h-2l.57 2.264c2.187 9.02 3.631 18.052 4.868 27.236l.316 2.31c1.706 12.48 3.195 24.981 4.559 37.503l.263 2.4q.37 3.388.725 6.775l.411 3.892c.283 3.558.34 7.053.288 10.62-8.662 1.855-17.174 2.547-26 3-1.994-13.447-3.554-26.917-4.937-40.437-1.226-11.96-2.553-23.894-4.126-35.813l-.498-3.781-.49-3.711a1649 1649 0 0 1-2.699-21.633l-.387-3.169c-.684-5.865-.985-11.551-.863-17.456 5.124-1.708 10.525-2 15.875-2.625l3.59-.445 3.465-.407 3.163-.377c2.937-.148 5.113-.06 7.907.854 1.63 1.556 1.63 1.556 3.059 3.586l1.646 2.291 1.733 2.498q1.87 2.622 3.742 5.242l1.92 2.718c2.36 3.312 4.787 6.57 7.22 9.829 12.928 17.339 24.607 35.26 35.68 53.836l-.61-3.798q-1.145-7.135-2.27-14.275-.486-3.058-.978-6.117c-1.99-12.367-3.658-24.686-4.722-37.168-.504-5.854-1.272-11.668-2.053-17.49C1318 1724 1318 1724 1318 1720c2.673-.89 4.785-1.264 7.563-1.535l2.664-.264 2.773-.264 2.773-.275c6.79-.662 6.79-.662 10.227-.662M362 976c4.492 15.723 4.492 15.723 5.272 18.477.612 2.12 1.263 4.227 1.923 6.332.864 3.424 1.428 5.698.805 9.191-2.083 2.375-4.053 4.28-6.437 6.313a915 915 0 0 0-4.372 3.925l-2.472 2.233c-5.957 5.54-11.625 11.385-17.342 17.171-5.942 6.012-11.906 11.908-18.377 17.358q-1.62 1.403-3.238 2.809c-6.699 5.747-13.523 11.128-20.762 16.191l1.674-.56L306 1073l2.089-.697c12.425-4.12 24.999-7.47 37.68-10.701 6.786-1.732 13.51-3.632 20.231-5.602a857 857 0 0 1 6.063-1.75l2.535-.734c2.534-.544 4.818-.608 7.402-.516a334 334 0 0 1 4.125 13.063l1.07 3.597c.712 2.953.976 5.328.805 8.34-5.329 2.087-10.57 3.779-16.129 5.121l-2.28.564c-2.383.589-4.768 1.17-7.154 1.753a8214 8214 0 0 0-11.697 2.88c-7.273 1.798-14.507 3.73-21.74 5.682a3795 3795 0 0 1-9.25 2.438l-4.86 1.277-2.45.644a23782 23782 0 0 0-14.285 3.757 2956 2956 0 0 0-12.362 3.275l-2.59.69q-2.444.65-4.887 1.308c-4.088 1.086-8.123 1.998-12.316 2.611-2.767-7.887-4.965-15.897-7-24l-.777-2.455c-.223-2.545-.223-2.545 1.189-4.654l2.147-2.07 2.36-2.317 2.519-2.379c.795-.777 1.591-1.555 2.412-2.355 3.672-3.563 7.407-7.027 11.279-10.372 3.988-3.447 7.682-7.136 11.371-10.898 4.356-4.398 8.7-8.723 13.438-12.715 2.235-1.935 4.382-3.953 6.533-5.98 7.167-6.738 14.707-12.847 22.529-18.805-3.954 0-7.29 1.325-11 2.563-11.544 3.753-23.281 6.7-35.042 9.684-7.906 2.014-15.78 4.147-23.642 6.327l-3.034.838q-2.982.824-5.961 1.659l-2.743.757-2.456.685C248 1034 248 1034 245 1034q-1.507-5.655-3-11.312l-.867-3.249-.82-3.115-.762-2.872C239 1011 239 1011 239 1008c15.305-4.122 30.613-8.194 46.002-11.99a438 438 0 0 0 18.185-4.947c5.245-1.462 10.528-2.758 15.813-4.063 7.626-1.884 15.2-3.848 22.738-6.055a612 612 0 0 1 11.512-3.195l3.766-1.016C360 976 360 976 362 976m494 681c4.381.483 8.182 1.685 12.273 3.285l3.497 1.358 3.605 1.42 3.676 1.431q4.477 1.745 8.949 3.506l.427 3.13q.796 5.824 1.6 11.647.345 2.505.686 5.012c1.133 8.3 2.28 16.574 3.84 24.806 3.216 17.311 4.373 34.856 5.447 52.405l.832-2.606c8.413-26.19 18.061-51.814 28.168-77.394 5.136.94 9.853 2.598 14.75 4.375l2.652.922 2.52.914 2.3.822C953 1693 953 1693 954 1696a130 130 0 0 1-3.066 8.57l-1.035 2.681a1987 1987 0 0 1-3.462 8.874l-2.414 6.23q-2.605 6.72-5.22 13.434a5436 5436 0 0 0-7.977 20.646q-2.956 7.686-5.915 15.372l-2.156 5.605q-2.041 5.3-4.087 10.6l-1.207 3.139c-2.705 7-5.544 13.935-8.461 20.849-6.69-.516-12.303-2.956-18.437-5.562l-3.084-1.288A1416 1416 0 0 1 880 1802a107602 107602 0 0 1-4.356-32.057c-6.803-50.033-6.803-50.033-7.832-61.88l-.248-2.721q-.287-3.171-.564-6.342l-.8 2.435a1290 1290 0 0 1-19.926 55.853 1477 1477 0 0 0-2.535 6.688 1177 1177 0 0 1-3.614 9.438l-1.082 2.896-1.035 2.634-.886 2.311C836 1783 836 1783 834.017 1783.788c-4.276.45-8.314-1.896-12.205-3.476l-2.81-1.068-2.67-1.068-2.446-.972C812 1776 812 1776 811.294 1774.2c-.358-2.677.128-4.095 1.111-6.602l1.02-2.651 1.15-2.884c.39-1.009.782-2.017 1.185-3.056 1.3-3.34 2.613-6.673 3.928-10.007q1.358-3.48 2.712-6.962 2.84-7.293 5.691-14.58c4.25-10.873 8.423-21.777 12.603-32.678q3.118-8.13 6.244-16.257l1.07-2.79q2.565-6.675 5.183-13.328l.98-2.49C855 1658 855 1658 856 1657M208 592c10.134 3.378 10.134 3.378 13.758 4.631l2.507.867 2.645.916 2.864.991 9.289 3.22 3.233 1.121c19.428 6.74 38.82 13.578 58.198 20.463l2.776.986 2.7.96A5536 5536 0 0 0 334 636q-.178 6.43-.372 12.86-.065 2.184-.125 4.367-.089 3.155-.187 6.308l-.11 3.825c-.205 3.615-.64 7.067-1.206 10.64-8.385 2.946-16.8 5.3-25.437 7.375-8.404 2.057-16.763 4.184-25.063 6.625-8.117 2.383-16.286 4.48-24.5 6.5-10.977 2.701-21.841 5.674-32.693 8.834a665 665 0 0 1-10.932 3.041l-3.54.96C207 708 207 708 204 708c-.03-3.667-.047-7.333-.062-11l-.026-3.121c-.018-5.73.223-11.214 1.088-16.879 6.366-2.227 12.768-4.065 19.313-5.687l2.666-.682 2.572-.643 2.302-.577C234 669 234 669 238 669l-.016-1.781c-.09-11.79-.009-23.468 1.016-35.219l-3.746-.742c-5.94-1.32-11.594-3.34-17.316-5.383L207 622zm478 962c18.867 3.333 42.59 23.456 54 38 5.943 9.001 7.976 17.224 7 28-2.795 13.135-10.36 21.534-20.742 29.57-9.436 5.975-20.51 5.95-31.323 4.071-9.706-2.346-17.848-8.046-25.935-13.641a1395 1395 0 0 0-6-4l-1.019 1.506c-6.391 9.434-12.83 18.81-19.64 27.947-2.369 3.148-2.369 3.148-4.341 6.547-4.884-2.33-9.264-5.367-13.75-8.375l-2.691-1.75-2.543-1.71-2.335-1.55L615 1657c0-4.125.1-4.632 2.387-7.695l1.574-2.14 1.726-2.29 3.606-4.887 1.873-2.517a1136 1136 0 0 0 8.334-11.409l1.62-2.234c3.911-5.42 7.694-10.92 11.442-16.453a422 422 0 0 1 13.908-19.302c4.52-5.965 8.738-12.122 12.903-18.34 3.655-5.429 7.551-10.614 11.627-15.733M223 496c12.938.549 25.63 2.606 38.414 4.563l7.04 1.064q7.337 1.11 14.67 2.23 9.405 1.433 18.81 2.854 7.25 1.097 14.5 2.198l6.94 1.053q4.833.733 9.664 1.472l2.893.437 2.658.408 2.302.35c2.069.364 4.08.835 6.109 1.371 1.075 24.242-.416 54.553-16.691 74.023-6.388 6.774-13.65 10.467-23.036 11.313-13.857.139-24.994-2.278-35.171-12.184-10.576-11.222-11.545-24.684-11.305-39.41.19-6.022 1.07-11.826 2.203-17.742l-2.27-.129c-9.13-.6-18.032-1.919-27.043-3.433l-4.302-.71Q224.19 524.873 219 524q.215-3.29.438-6.578c.08-1.221.162-2.442.246-3.7C220.819 500.36 220.819 500.36 223 496m393 993c3.252 1.417 5.314 3.125 7.75 5.688 2.527 2.591 5.063 5.083 7.813 7.437 4.04 3.475 7.925 7.105 11.812 10.75a859 859 0 0 0 15.063 13.816c5.235 4.717 10.392 9.52 15.562 14.309-1.434 3.31-3.21 5.397-5.812 7.875A109 109 0 0 0 659 1559c-5.146-3.613-9.632-7.505-14.016-12.008-2.454-2.464-5.051-4.717-7.687-6.984-4.85-4.24-9.56-8.642-14.297-13.008-3.113 1.372-5.115 2.914-7.418 5.406l-1.861 2.004-1.909 2.09-1.943 2.09c-3.307 3.44-3.307 3.44-5.869 7.41l1.765.789c2.386 1.293 4.038 2.713 5.993 4.59l2.132 2.03 2.235 2.153q2.288 2.182 4.578 4.36l2.233 2.127c3.334 3.151 6.748 6.208 10.181 9.252A109 109 0 0 1 638 1576c-1.434 3.31-3.21 5.397-5.812 7.875A109 109 0 0 0 623 1594c-5.947-5.001-11.663-10.24-17.375-15.505q-2.495-2.295-4.996-4.58l-1.652-1.512-3.144-2.874c-1.979-1.813-3.935-3.631-5.833-5.529-3.576.3-5.222 1.898-7.602 4.457l-1.984 2.123-2.039 2.233-2.062 2.197c-2.965 3.202-5.509 5.98-7.313 9.99 12.204 11.479 24.43 22.921 37 34-1.505 3.57-3.593 5.77-6.375 8.438-3.118 3.042-6.022 6.054-8.625 9.562-3.487-1.484-5.642-3.462-8.25-6.187-3.39-3.533-6.948-6.76-10.645-9.964-3.405-2.99-6.688-6.11-9.98-9.224-5.146-4.847-10.323-9.645-15.598-14.352-5.226-4.701-10.37-9.495-15.527-14.273 1.417-3.252 3.125-5.314 5.688-7.75 2.633-2.567 5.163-5.15 7.562-7.937 3.093-3.593 6.28-7.086 9.5-10.563l1.563-1.688 3.15-3.4a2172 2172 0 0 0 7.1-7.725l1.364-1.489L571 1538q2.718-2.97 5.438-5.937l1.363-1.489c3.43-3.742 6.876-7.472 10.324-11.199a947 947 0 0 0 10.313-11.312c5.765-6.436 11.67-12.743 17.562-19.063m157 122c9.364 4.463 18.379 9.423 27.372 14.586a518 518 0 0 0 17.745 9.672l2.079 1.086a904 904 0 0 0 8.22 4.259c1.918.976 3.825 1.968 5.732 2.963 1.106.567 2.21 1.134 3.35 1.717C840 1647 840 1647 840.996 1648.944c.005 2.673-.75 4.074-2.086 6.384l-1.377 2.422-1.47 2.5-1.46 2.547A691 691 0 0 1 831 1669c-4.234-1.301-7.97-2.92-11.852-5.047l-3.332-1.812-3.441-1.891c-8.381-4.584-16.798-9.04-25.375-13.25a1373 1373 0 0 0-5.562 9.813l-1.616 2.814-1.513 2.705-1.413 2.491c-1.22 2.292-1.22 2.292.104 5.177 1.583 1.16 1.583 1.16 3.586 2.094l2.296 1.168 2.493 1.238a425 425 0 0 1 21.313 11.625l2.519 1.47q2.9 1.698 5.793 3.405c-1.658 4.493-3.85 8.612-6.125 12.813l-1.129 2.1A2531 2531 0 0 1 805 1711c-4.287-.61-7.474-2.136-11.262-4.203l-1.79-.969q-2.822-1.531-5.635-3.078-3.692-2.011-7.387-4.016l-1.797-.977A394 394 0 0 0 762 1690l-.68 2.422c-1.687 4.572-4.018 8.613-6.445 12.828q-1.385 2.41-2.758 4.828c-.61 1.058-.61 1.058-1.23 2.138-1.035 1.75-1.035 1.75-.887 3.784l1.886 1.019A5314 5314 0 0 1 794 1740c-1.48 5.001-3.632 9.33-6.125 13.875l-1.129 2.086q-1.368 2.522-2.746 5.039c-3.833-.594-6.714-1.724-10.105-3.59l-2.952-1.611-3.13-1.736-3.26-1.788Q759.77 1749.65 755 1747l-2.495-1.383a2683 2683 0 0 1-8.597-4.789 822 822 0 0 0-13.318-7.265l-3.338-1.79q-3.27-1.749-6.547-3.484l-2.99-1.601-2.684-1.426C713 1724 713 1724 712 1722c1.105-2.512 1.105-2.512 2.832-5.687l.93-1.726c1.01-1.867 2.03-3.727 3.05-5.587q1.054-1.94 2.106-3.881A2418 2418 0 0 1 727 1694l1.438-2.617q2.912-5.276 5.855-10.535A4136 4136 0 0 0 744.75 1662l1.032-1.867a2218 2218 0 0 0 16.526-30.483A358 358 0 0 1 773 1611m-342-418a104 104 0 0 1 3.809 7.898l1.1 2.468c1.187 2.665 2.358 5.337 3.529 8.009l2.427 5.478q2.43 5.484 4.848 10.976c2.02 4.578 4.073 9.14 6.142 13.694l1.696 3.749q1.54 3.405 3.095 6.804l1.362 3.033 1.176 2.593C461 1260 461 1260 461 1264a7636 7636 0 0 1-8.812 3.938l-2.526 1.13-2.432 1.084-2.237 1C443 1272 443 1272 440 1273l-8.862-19.367-3.247-7.098-.998-2.179A1371 1371 0 0 1 420 1229c-6.731 2.054-12.935 4.744-19.277 7.793C398 1238 398 1238 396 1238l1.617 3.348c6.118 12.747 11.816 25.655 17.383 38.652-2.069 2.258-3.886 3.6-6.687 4.824l-2.118.928-2.195.936-2.195.97c-3.076 1.33-5.419 2.342-8.805 2.342q-3.852-8.487-7.69-16.98a4540 4540 0 0 0-2.62-5.78q-1.88-4.145-3.752-8.295l-1.194-2.62-1.092-2.426-.969-2.14C375 1250 375 1250 375 1248l-1.601.779a2335 2335 0 0 1-7.337 3.534l-2.517 1.224c-5.408 2.588-10.809 4.717-16.545 6.463l1.033 2.008c4.22 8.308 8.106 16.742 11.883 25.259 1.036 2.327 2.084 4.648 3.133 6.97q.99 2.226 1.978 4.454l.953 2.093c2.134 4.873 2.134 4.873 1.02 8.216-1.95 1.167-1.95 1.167-4.473 2.262l-2.724 1.2-2.865 1.226-2.877 1.26A969 969 0 0 1 347 1318c-9.875-21.089-19.674-42.224-29-63.562l-1.257-2.862-1.118-2.58-.96-2.213C314 1245 314 1245 314 1243l2.67-1.183c16.928-7.503 33.843-15.032 50.725-22.638l7.451-3.352a4772 4772 0 0 0 23.305-10.54q5.306-2.416 10.617-4.819 2.53-1.149 5.055-2.308c2.322-1.066 4.65-2.12 6.978-3.172l2.087-.969c4.77-2.133 4.77-2.133 8.112-1.019m-86-312c2.934 14.285 5.61 28.608 8.147 42.969q.918 5.176 1.85 10.351l1.175 6.64.558 3.097c.823 4.704 1.507 9.146 1.27 13.943q-4.905 1.005-9.812 2l-2.815.578-2.705.547-2.491.508C338 962 338 962 335 962q-1.716-9.288-3.418-18.58l-1.164-6.32q-.838-4.541-1.668-9.084l-.53-2.854-.486-2.669-.43-2.342C327 918 327 918 327 914l-3.91.656-5.152.844-2.569.434-2.53.41-2.3.38c-3.19.347-6.333.317-9.539.276l.304 1.695q1.56 8.71 3.114 17.421.58 3.254 1.164 6.507.836 4.668 1.668 9.338l.53 2.951.486 2.73.43 2.41C309 962 309 962 309 964c-3.623.698-7.249 1.382-10.875 2.063l-3.129.603-2.988.557-2.761.523C287 968 287 968 285 967a105 105 0 0 1-1.473-7.656l-.387-2.353q-.405-2.475-.8-4.953c-.397-2.501-.806-5-1.217-7.499l-.783-4.82-.363-2.236c-.816-5.149-1.431-10.299-1.977-15.483l-2.539.459q-4.656.84-9.314 1.677l-4.033.728q-2.896.523-5.794 1.042l-3.523.635C250 927 250 927 248 927l.377 1.634c1.272 5.607 2.362 11.226 3.35 16.89l.462 2.63.953 5.45q.729 4.177 1.467 8.353l.93 5.316.445 2.52c.538 3.106 1.016 6.048 1.016 9.207q-4.311.758-8.625 1.5l-2.45.434-2.402.41-2.19.38c-2.791.33-5.525.318-8.333.276l-.547-3.348q-1.283-7.827-2.578-15.652l-.473-2.862c-2.35-14.188-4.854-28.336-7.623-42.449l-.713-3.677-.626-3.173c-.416-2.682-.6-5.132-.44-7.839 2.013-2.013 5.761-1.898 8.52-2.348l2.39-.4q2.585-.433 5.17-.861c4.681-.777 9.36-1.568 14.037-2.36l2.958-.5c10.47-1.78 20.917-3.68 31.363-5.593l8.253-1.508 2.715-.496 2.687-.491c8.37-1.53 16.74-3.05 25.117-4.545q2.201-.393 4.402-.792 3.003-.542 6.01-1.075l3.388-.607A45.6 45.6 0 0 1 345 881m1185.574 780.785c3.557 1.781 4.06 4.313 5.354 7.96l.884 2.693.944 2.681c2.244 6.476 2.244 6.476 2.244 8.881q-9.556 3.424-19.116 6.836-3.255 1.162-6.507 2.328a6382 6382 0 0 1-9.338 3.336l-2.951 1.06-2.73.971-2.41.862C1495 1700 1495 1700 1493 1700l1.207 2.93 1.605 3.945.792 1.914c2.149 5.307 3.821 10.708 5.396 16.211l1.933-.731q9.454-3.57 18.924-7.097 2.943-1.098 5.884-2.203c2.332-.876 4.67-1.737 7.009-2.594l2.07-.786c3.448-1.244 5.746-2.054 9.18-.589 1.097 1.826 1.097 1.826 1.922 4.184l.918 2.56.91 2.694.957 2.681c2.293 6.517 2.293 6.517 2.293 8.881q-8.915 3.21-17.834 6.409-3.036 1.09-6.07 2.182a5538 5538 0 0 1-8.713 3.128l-2.753.994-2.547.91-2.248.808C1512 1747 1512 1747 1510 1747l1.172 2.895C1520 1771.777 1520 1771.777 1520 1775l1.809-.645q9.292-3.314 18.589-6.618 3.473-1.236 6.943-2.474 4.98-1.776 9.964-3.544l3.15-1.127 2.912-1.031 2.57-.916C1568 1758 1568 1758 1570 1758a1089 1089 0 0 1 3.563 9.25l1.037 2.645.966 2.558.905 2.349c.631 2.622.61 3.724-.471 6.198-2.362 1.29-2.362 1.29-5.539 2.41l-3.593 1.295-3.923 1.358q-2.01.714-4.02 1.433a1708 1708 0 0 1-10.63 3.744c-3.568 1.25-7.13 2.517-10.693 3.783a4805 4805 0 0 1-19.27 6.793 591 591 0 0 0-12.138 4.487C1504 1807 1504 1807 1501 1807a42588 42588 0 0 1-29.437-81.062l-1.06-2.93q-2.416-6.673-4.819-13.348a999 999 0 0 0-3.263-8.925l-.72-1.962a1393 1393 0 0 0-1.873-5.056C1459 1691 1459 1691 1459 1687l2.396-.86a96221 96221 0 0 0 33.883-12.162 29277 29277 0 0 0 15.34-5.507q2.97-1.065 5.938-2.133l3.412-1.224a156 156 0 0 0 5.773-2.247c2.258-.867 2.258-.867 4.832-1.082M1145 1729h78v24l-50-1v27h47v24c-16.038.114-31.973-.342-48-1v31h52v23h-81c0-28.975 0-28.975.184-42.137l.06-4.52q.062-4.67.128-9.343.081-5.835.155-11.668.06-4.652.126-9.302.03-2.145.056-4.288c.191-15.259.782-30.485 1.291-45.742m470.313-104.062 3.687.062c2.408 7.911 4.361 15.686 4 24l-1.984.078c-11.577.72-24.727 4.127-33.079 12.735-2.57 4.227-2.41 6.3-1.937 11.187l.188 2.375c.717 1.824.717 1.824 2.835 2.719 3.842 1.17 7.455 1.116 11.426 1.031l2.463-.023c3.458-.032 6.915-.088 10.373-.143 14.838-.214 28.778-.246 40.856 9.826 7.587 8.033 11.267 18.305 11.136 29.211-1.052 11.396-7.795 21.297-15.894 29.027-12.977 10.765-31.964 19.074-49.067 18.997l-2.45-.009L1596 1766q-1.255-5.437-2.5-10.875l-.723-3.129-.683-2.988-.635-2.761C1591 1744 1591 1744 1591 1742l3.219-.367c21.209-2.43 21.209-2.43 38.781-13.633 2.615-4.097 3.62-7.15 3-12-1.385-3.309-2.533-4.704-5.567-6.63-4.279-1.707-7.684-1.717-12.234-1.593l-2.533.028c-2.66.03-5.319.08-7.978.132q-3.974.075-7.947.123-2.464.029-4.93.09c-10.587.137-19.475-2.541-27.561-9.525-7.892-9.208-10.887-16.615-10.594-28.937 1.156-12.395 9.26-21.572 18.348-29.485 10.914-8.026 26.587-15.498 40.309-15.265m-1145.7-332.196c3.855 2.032 7.124 4.379 10.387 7.258l1.953 1.637c10.604 9.623 18.822 25.256 21.047 39.363.117 2.677.045 5.318 0 8-3.954 1.726-7.846 2.732-12.062 3.625-1.812.39-1.812.39-3.66.79C484 1354 484 1354 480 1354l-.41-2.79c-1.853-10.897-4.737-22.425-13.402-30.023-4.192-2.876-6.095-3.586-11.188-3.187-3.394 1.388-4.666 2.332-6.312 5.625-1.28 6.277-.825 11.847.312 18.125.982 6 1.257 11.872 1.313 17.938l.052 2.625c-.008 11.306-3.396 19.529-11.217 27.597-8.141 7.64-17.13 10.512-28.183 10.363-12.648-1.166-22.804-9.132-30.805-18.488-10.52-13.563-18.796-30.308-18.16-47.785 17.234-6 17.234-6 24-6l.262 2.535c1.761 14.595 5.23 29.02 16.738 39.09 3.712 1.701 5.956 1.953 10 1.375 3.983-2.104 6.487-3.735 8-8 .168-2.81.234-5.507.188-8.312l-.002-2.225c-.027-3.339-.19-6.497-.674-9.807-1.804-12.89-2.65-27.294 4.488-38.656.36-.605.722-1.21 1.094-1.832 9.519-13.429 29.367-15.476 43.52-9.426M269.313 718.563l3.305.025c17.304.36 32.521 5.903 45.171 18.04 16.121 17.29 20.005 39.028 19.365 61.817-.36 5.971-1.464 12.174-4.154 17.555-7.754-1.037-15.393-2.164-23-4l.438-1.957c3.205-16.273 3.42-32.466-5.715-46.785C298.979 755.73 290.055 752.017 281 750c-14.484-.892-28.545-.017-40 10-2.387 2.483-4.238 5.044-6 8l-1.254 2.031c-6.131 12.135-3.334 28.456.254 40.969q.514 2.497 1 5c-3.43.924-6.87 1.81-10.312 2.688l-2.96.798-2.841.713-2.619.683C214 821 214 821 212.281 819.744c-7.243-9.86-6.794-24.39-6.844-36.057l-.025-2.055c-.157-17.652 5.1-32.556 17.31-45.417 12.853-12.5 28.858-17.828 46.59-17.653M1449 1692q1.255 5.186 2.5 10.375l.723 2.984.683 2.852.635 2.634C1454 1713 1454 1713 1454 1715q-5 1.44-10 2.875l-2.832.816C1426.14 1723 1426.14 1723 1421 1723c.15.59.3 1.182.456 1.79 2.87 11.314 5.666 22.636 8.232 34.023 1.897 8.408 3.95 16.766 6.101 25.113l.75 2.91q1.87 7.249 3.766 14.491l1.402 5.4.656 2.475c1.275 4.93 2.109 9.731 2.637 14.798a5766 5766 0 0 1-12.312 3l-3.538.867-3.388.82-3.127.762C1420 1830 1420 1830 1417 1830a688 688 0 0 1-8.824-34.057c-2.85-12.32-5.807-24.595-9.051-36.818-2.471-9.322-4.594-18.6-6.125-28.125q-5 1.186-10 2.375l-2.832.672-2.793.664-2.766.655c-2.337.568-4.66 1.179-6.984 1.798-3.058.705-5.515 1.03-8.625.836q-1.26-4.341-2.5-8.687l-.723-2.475c-1.142-4.03-2.122-7.603-1.777-11.838 6.566-2.31 13.18-4.153 19.938-5.812 1.042-.26 2.084-.518 3.157-.784 8.528-2.101 17.086-4.061 25.652-6a625 625 0 0 0 18.612-4.56l2.135-.558q5.187-1.357 10.366-2.746l3.785-1 3.354-.9c2.78-.593 5.173-.77 8.001-.64M391 1089c3.49 3.158 4.586 6.857 6.047 11.223l.874 2.536c.95 2.765 1.89 5.534 2.829 8.303q2.007 5.85 4.023 11.696l1.043 3.036c4.075 11.841 8.312 23.624 12.554 35.406l1.896 5.277q.855 2.383 1.717 4.765c1.159 3.23 2.223 6.42 3.017 9.758-19.617 8-19.617 8-23 8q-2.355-6.351-4.7-12.708-.798-2.162-1.6-4.324-1.15-3.104-2.294-6.21l-.729-1.957C391 1159.228 391 1159.228 391 1157c-15.077 5.162-30.135 10.375-45.148 15.719l-2.021.719q-9.205 3.277-18.407 6.561-5.125 1.83-10.254 3.653-2.835 1.01-5.668 2.024l-3.476 1.236-3.026 1.08c-3.3 1.109-6.653 2.052-10 3.008l-9-27c13.5-5.625 13.5-5.625 19.06-7.584l1.843-.653q2.943-1.039 5.89-2.072 2.1-.74 4.198-1.482 5.486-1.935 10.974-3.865 5.511-1.94 11.021-3.885 6.359-2.245 12.719-4.48a2313 2313 0 0 0 19.465-6.913q2.1-.754 4.193-1.522c2.716-.974 4.72-1.544 7.637-1.544l-1.026-2.69q-1.876-4.95-3.729-9.908a830 830 0 0 0-1.62-4.283 807 807 0 0 1-2.316-6.166l-.745-1.926c-.923-2.516-1.576-4.648-1.488-7.341 1.343-2.45 2.772-2.75 5.397-3.608l2.724-.918 2.865-.91 2.877-.957q3.524-1.169 7.061-2.293" fill="#61c9d1"/><path d="M995 1727c13.648 1.3 26.964 3.907 37 14 7.88 10.495 9.039 20.86 7.723 33.707-2.122 12.506-7.901 23.938-17.801 31.977-9.853 6.749-21.224 7.587-32.777 5.68-9.837-2.056-9.837-2.056-11.145-3.364-.054-9.555 2.618-19 4.75-28.25q.548-2.41 1.093-4.82.814-3.603 1.634-7.206a1586 1586 0 0 0 4.336-19.724c1.588-7.372 3.258-14.708 5.187-22m-458-297c9.484 7.548 18.106 17.643 20 30 1.015 10.678-1.553 19.845-8.39 28.172L547 1490l-1.484 1.766c-8.232 9.047-19.71 15.43-31.895 16.543-11.535.41-19.303-2.465-28.078-9.887-12.35-11.762-12.35-11.762-12.691-16.473 1.78-3.02 4.436-4.84 7.21-6.887q1.926-1.464 3.848-2.933l2.036-1.546c3.407-2.626 6.727-5.356 10.054-8.083a966 966 0 0 1 16.687-13.316c5.419-4.24 10.752-8.583 16.073-12.946l1.94-1.586 1.713-1.406c1.473-1.157 3.028-2.207 4.587-3.246"/><path d="m1095 1723 2.573.201c7.342.575 7.342.575 14.689 1.08l3.426.219 3.511.219C1122 1725 1122 1725 1124 1726q-.18 3.657-.375 7.313l-.094 1.974c-.39 7.117-1.19 14.19-1.951 21.274a2568 2568 0 0 0-1.799 17.486l-.636 6.308q-.486 4.812-.968 9.622c-1.096 10.948-2.236 21.866-3.753 32.764-.671 5.156-1.085 10.326-1.486 15.509q-.232 2.977-.473 5.953l-.2 2.583C1112 1849 1112 1849 1111 1852c-9.466.368-18.639-.77-28-2-.502-12.19 1.025-24.158 2.375-36.25q.338-3.091.672-6.184c.87-7.984 1.754-15.966 2.714-23.94 1.471-12.21 2.654-24.45 3.864-36.688l.695-6.995q.843-8.47 1.68-16.943M339 831c1.818 9.322 2.544 18.536 3 28a384 384 0 0 1-24 3.438l-3.368.382c-7.09.8-14.184 1.56-21.28 2.307-10.431 1.1-20.84 2.281-31.237 3.671a2220 2220 0 0 1-24.55 3.114l-4.477.55q-3.143.388-6.287.768l-3.683.45C220 874 220 874 216 874c-.511-3.144-1.007-6.29-1.5-9.437l-.434-2.663c-.884-5.707-1.207-11.125-1.066-16.9 14.273-1.975 28.539-3.912 42.875-5.375 15.537-1.587 31.022-3.581 46.513-5.556l3.07-.39q2.847-.36 5.692-.728c9.297-1.179 18.472-2.105 27.85-1.951" fill="#61c9d1"/><path d="M467 594c19.361 1.401 38.679 3.136 58 5q.025 3.54.04 7.082l.021 3.984c-.187 12.048-2.78 22.434-10.499 31.934-7.876 6.148-14.672 7.75-24.562 7-8.983-1.903-15.71-6.534-21-14-4.063-7.386-4.182-14.665-4.187-22.875l-.038-2.934c-.01-5.47.404-10.024 2.225-15.191m540 931q2.356-.037 4.713-.057l2.65-.033c4.084.14 7.8 1.12 11.7 2.277l2.37.69c9.588 2.902 16.778 6.656 22.567 15.123 3.419 7.112 2.788 14.467.313 21.813-3.356 8.19-8.148 12.678-16.313 16.187-13.376 3.415-26.14-.342-39-4-.946-3.697-.975-6.2-.012-9.882l.728-2.85.811-3.038.812-3.14c.856-3.303 1.727-6.603 2.598-9.902q.876-3.362 1.749-6.725 2.14-8.235 4.314-16.463"/><path d="M860.809 515.313c5.389 4.15 9.97 9.901 11.191 16.687.929 8.127-.267 14.257-5 21-5.365 6.193-11.206 9.092-19.219 10.348-6.442.442-11.515-1.745-16.781-5.348-5.353-4.8-9.496-10.268-10.277-17.602-.286-8.308 1.234-14.163 6.465-20.648 8.971-9.456 22.168-11.079 33.62-4.437" fill="#1e59ac"/><path d="m659 1200-56 56c-3.22-3.22-4.809-5.085-6.84-8.922l-1.533-2.86-1.564-2.968a2612 2612 0 0 0-3.09-5.797l-1.5-2.807c-1.725-3.098-3.608-6.06-5.592-8.999C582 1222 582 1222 582 1219a463 463 0 0 1 30.313-7.75c11.343-2.506 22.328-5.788 33.344-9.442l3.523-1.148 3.116-1.043C655 1199 655 1199 659 1200m762 301c3.295 3.992 6.223 8.16 9.125 12.438 7.456 10.908 15.158 21.616 23 32.25l1.812 2.458c2.572 3.485 5.146 6.968 7.735 10.44l2.203 2.976 1.867 2.504C1468 1566 1468 1566 1468 1568a7315 7315 0 0 1-15.643 5.554q-2.663.944-5.323 1.892-3.821 1.361-7.647 2.71l-2.406.862c-3.11 1.093-5.66 1.982-8.981 1.982-.935-10.245-1.867-20.49-2.78-30.737q-.511-5.724-1.025-11.447l-.52-5.848q-.383-4.315-.773-8.628l-.23-2.63c-.36-3.97-.824-7.808-1.672-11.71a88 88 0 0 1-.062-4.812l.027-2.395zM471 928h80c-2.659 2.659-4.418 3.915-7.664 5.61l-2.863 1.514-3.098 1.626c-12.086 6.44-23.803 13.404-35.503 20.514a1099 1099 0 0 1-12.935 7.673A5289 5289 0 0 1 482 969c-2.683-2.683-2.965-5.023-3.91-8.695l-.522-2.02a936 936 0 0 1-1.082-4.241 992 992 0 0 0-1.652-6.419c-1.685-6.576-2.987-12.85-3.834-19.625M285 534c12.806.51 25.385 2.878 38 5-.284 10.793-.796 21.03-9 29-5.663 3.098-10.254 4.078-16.523 2.273-6.798-2.452-9.642-5.062-13.227-11.336-3.15-7.9-1.367-17 .75-24.937m412 1053c8.807.987 14.453 6.9 19.906 13.52 3.18 4.303 2.473 9.35 2.094 14.48-1.777 5.775-6.128 9.606-11 13-6.879 2.306-12.973 1.14-19.457-1.645-4.254-2.267-7.899-5.221-11.543-8.355.61-3.123 1.62-5.185 3.477-7.758l1.524-2.133 1.624-2.234 3.273-4.566 1.609-2.231a698 698 0 0 0 5.743-8.14l1.64-2.348zM260 637c11.185 3.356 11.185 3.356 16.68 5.156l3.566 1.16q3.618 1.18 7.234 2.368c7.445 2.416 14.898 4.532 22.52 6.316v2l-2.177.471c-19.133 4.152-19.133 4.152-38.084 9.055-3.419.944-6.158 1.474-9.739 1.474z"/><path d="M963 989h3l.519 1.94q1.175 4.375 2.356 8.747l.816 3.053.801 2.96.73 2.713c.736 2.635.736 2.635 1.935 5.23C974 1016 974 1016 973 1019a2329 2329 0 0 1-5-12.187l-1.445-3.487-1.367-3.369-1.27-3.094c-.903-2.816-1.106-4.931-.918-7.863" fill="#dbde01"/><path d="M1453 948c3.21 2.67 4.51 5.922 6.188 9.688l1.605 3.574L1462 964h-2q-1.256-2.434-2.5-4.875l-1.406-2.742C1455 954 1455 954 1455 952h-3z" fill="#c41a0b"/><path d="m575 427 4 2-2 7h-3z" fill="#1e59ac"/><path d="M1020 1132c4.274 1.583 6.265 4.506 9 8-3.432-1.24-6.303-2.503-9-5z" fill="#90bc18"/><path d="m709 374 2 1-8 8-2-1q1.432-1.724 2.875-3.437l1.617-1.934C707 375 707 375 709 374" fill="#1e59ac"/><path d="m1351 1084 2 1-8 7-2-1z" fill="#c41a0b"/><path d="M1486 769c2.947 2.744 5.192 5.383 7 9l-1 2a399 399 0 0 1-3-3.812l-1.687-2.145C1486 772 1486 772 1486 769" fill="#dbde01"/><path d="m1208 1358 3 1-3 7h-1q-.061-3.5 0-7z" fill="#c41a0b"/></svg>