<?xml version="1.0" encoding="UTF-8" ?>
<!DOCTYPE svg PUBLIC "-//W3C//DTD SVG 1.1//EN" "http://www.w3.org/Graphics/SVG/1.1/DTD/svg11.dtd">
<svg width="622pt" height="699pt" viewBox="0 0 622 699" version="1.1" xmlns="http://www.w3.org/2000/svg">
<g id="#ffffffff">
<path fill="#ffffff" opacity="1.00" d=" M 74.06 220.10 C 73.95 217.89 74.38 215.70 74.67 213.52 C 79.41 214.27 84.15 215.06 88.89 215.83 C 88.26 218.68 88.34 222.01 86.24 224.29 C 82.52 228.20 74.62 225.47 74.06 220.10 Z" />
<path fill="#ffffff" opacity="1.00" d=" M 64.16 293.00 C 70.73 294.10 77.30 295.28 83.86 296.42 C 83.88 297.05 83.91 298.32 83.93 298.96 C 77.57 300.68 71.22 302.47 64.84 304.16 C 64.58 300.44 64.32 296.72 64.16 293.00 Z" />
<path fill="#ffffff" opacity="1.00" d=" M 73.90 367.71 C 80.47 367.86 87.07 367.53 93.64 367.95 C 93.89 368.51 94.39 369.62 94.64 370.18 C 88.55 372.99 82.48 375.87 76.38 378.65 C 75.53 375.01 74.69 371.37 73.90 367.71 Z" />
<path fill="#ffffff" opacity="1.00" d=" M 109.38 442.46 C 112.32 441.82 115.79 441.70 118.20 443.81 C 121.28 446.59 122.79 451.69 120.31 455.33 C 118.11 458.54 114.50 460.36 111.05 461.93 C 106.97 463.65 102.54 465.34 98.03 464.60 C 93.76 463.82 91.03 459.18 91.46 455.04 C 91.95 451.59 94.82 449.19 97.59 447.45 C 101.25 445.24 105.22 443.50 109.38 442.46 Z" />
<path fill="#ffffff" opacity="1.00" d=" M 126.47 489.51 C 130.31 487.13 134.30 485.01 138.25 482.80 C 139.72 485.66 142.16 488.61 141.44 492.03 C 140.14 495.16 136.39 496.93 133.11 496.75 C 129.56 496.06 128.29 492.15 126.47 489.51 Z" />
<path fill="#ffffff" opacity="1.00" d=" M 184.70 580.97 C 190.32 577.36 195.99 573.85 201.58 570.19 C 202.19 571.12 203.51 572.16 202.44 573.32 C 199.26 578.57 195.89 583.71 192.57 588.88 C 189.90 586.29 187.23 583.70 184.70 580.97 Z" />
<path fill="#ffffff" opacity="1.00" d=" M 506.45 593.02 C 510.90 590.71 515.55 586.70 520.90 588.23 C 525.48 589.99 527.93 594.65 530.18 598.72 C 532.21 602.78 534.26 607.73 532.25 612.20 C 530.09 616.28 525.30 617.66 521.27 619.15 C 516.33 610.44 511.38 601.74 506.45 593.02 Z" />
<path fill="#ffffff" opacity="1.00" d=" M 462.07 612.96 C 466.50 611.31 471.15 608.43 476.03 609.77 C 480.45 611.34 482.44 616.07 484.12 620.08 C 485.82 624.62 487.57 629.87 485.49 634.59 C 483.13 639.09 477.56 639.90 473.08 640.86 C 469.46 631.54 465.75 622.25 462.07 612.96 Z" />
<path fill="#ffffff" opacity="1.00" d=" M 424.18 625.32 C 424.71 625.06 425.76 624.55 426.29 624.29 C 429.28 630.32 432.15 636.41 435.04 642.48 C 431.42 643.37 427.79 644.25 424.16 645.10 C 424.19 638.51 423.84 631.90 424.18 625.32 Z" />
<path fill="#ffffff" opacity="1.00" d=" M 323.36 631.47 C 328.29 628.84 335.52 631.61 336.35 637.46 C 337.32 644.15 336.61 651.44 333.40 657.48 C 330.52 662.94 321.46 662.75 318.75 657.25 C 316.54 652.51 317.24 647.06 317.91 642.06 C 318.58 638.14 319.69 633.64 323.36 631.47 Z" />
<path fill="#ffffff" opacity="1.00" d=" M 383.00 631.41 C 385.57 631.26 388.19 630.77 390.75 631.32 C 396.55 633.07 396.37 642.68 390.87 644.70 C 388.81 645.38 386.62 645.48 384.49 645.77 C 383.96 640.99 383.38 636.21 383.00 631.41 Z" />
</g>
<g id="#3e6fb4ff">
<path fill="#3e6fb4" opacity="1.00" d=" M 151.04 31.95 C 155.31 26.30 161.52 20.75 169.09 21.30 C 174.42 21.40 179.00 25.33 180.63 30.29 C 184.00 40.13 183.13 50.76 182.98 60.99 C 182.41 81.02 180.78 102.03 188.69 120.97 C 169.67 122.50 153.34 136.23 146.22 153.57 C 134.75 151.91 123.24 158.26 117.51 168.09 C 116.46 170.49 118.46 173.42 121.05 173.45 C 123.63 173.63 124.80 170.95 126.32 169.37 C 131.01 163.31 139.36 159.60 146.90 162.08 C 150.41 163.61 154.31 165.36 156.05 169.03 C 158.85 174.23 157.19 180.56 154.23 185.31 C 153.37 187.08 151.63 188.83 152.38 190.95 C 153.18 193.83 157.52 194.72 159.22 192.14 C 163.89 185.90 166.68 177.65 164.79 169.89 C 164.08 166.71 162.25 163.96 160.52 161.27 C 164.27 153.33 169.48 145.64 177.35 141.33 C 184.32 137.35 192.70 136.46 200.53 137.73 C 203.68 138.40 206.14 140.70 209.05 141.98 C 212.26 143.68 215.96 144.14 219.16 145.83 C 225.86 150.89 230.78 158.52 231.88 166.92 C 233.17 175.51 230.81 184.16 227.23 191.92 C 222.12 191.99 216.91 193.58 213.26 197.30 C 207.80 202.46 206.06 211.06 209.10 217.94 C 212.11 225.26 220.15 230.07 228.03 229.17 C 235.67 228.54 242.47 222.68 244.27 215.23 C 245.72 209.84 244.33 204.13 241.32 199.53 C 250.65 183.30 251.48 161.75 241.18 145.73 C 256.98 143.76 271.80 137.75 286.85 132.93 C 317.73 125.47 349.52 122.96 381.07 119.98 C 413.77 116.50 447.39 121.75 477.38 135.29 C 510.46 150.16 539.00 174.33 560.50 203.42 C 565.32 210.16 570.09 217.05 573.45 224.65 C 575.19 228.45 573.12 232.64 570.64 235.56 C 563.95 243.38 552.50 246.20 542.75 243.30 C 533.34 240.62 525.68 233.90 519.68 226.40 C 508.74 212.54 494.58 201.56 479.57 192.42 C 457.80 179.40 433.95 169.70 409.13 164.36 C 387.09 159.40 364.16 161.01 342.08 164.79 C 311.47 170.22 282.21 185.05 261.40 208.39 C 235.63 236.91 222.10 274.07 213.50 310.96 C 207.22 335.77 207.88 361.71 210.80 386.95 C 213.61 409.82 218.15 432.51 224.72 454.60 C 230.50 469.45 238.35 483.46 247.37 496.57 C 258.62 512.66 272.21 527.38 288.63 538.28 C 298.89 545.19 310.39 549.94 321.90 554.33 C 345.08 562.97 370.26 567.55 394.95 564.04 C 410.17 561.72 424.89 556.96 439.56 552.39 C 455.65 547.35 471.24 540.78 487.52 536.38 C 498.49 532.92 510.04 542.17 511.81 552.90 C 512.88 558.51 509.57 564.61 504.10 566.46 C 470.18 580.79 434.58 591.43 398.09 596.71 C 362.54 601.75 325.55 601.51 291.08 590.57 C 273.86 585.09 257.50 576.81 243.16 565.79 C 228.81 555.35 216.80 542.11 205.67 528.38 C 183.89 501.02 165.72 470.87 150.81 439.25 C 134.97 405.38 122.92 369.54 117.19 332.52 C 111.22 290.99 110.86 248.85 112.98 207.01 C 113.77 193.30 114.72 179.57 116.94 166.01 C 119.00 133.45 124.22 100.99 133.68 69.73 C 137.92 56.54 142.73 43.19 151.04 31.95 Z" />
<path fill="#3e6fb4" opacity="1.00" d=" M 234.45 27.69 C 247.41 25.49 261.18 28.59 271.90 36.22 C 283.66 44.41 291.64 57.79 293.14 72.05 C 294.62 84.77 291.05 97.99 283.29 108.19 C 275.15 119.08 262.48 126.48 248.96 128.06 C 235.01 129.84 220.43 125.47 209.79 116.27 C 198.97 107.10 192.30 93.21 192.07 79.00 C 191.62 65.28 197.13 51.53 206.88 41.87 C 214.29 34.42 224.07 29.37 234.45 27.69 Z" />
<path fill="#3e6fb4" opacity="1.00" d=" M 49.98 209.51 C 50.50 205.69 51.12 201.89 51.79 198.10 C 67.96 200.73 84.13 203.36 100.29 206.02 C 98.19 215.25 98.98 225.91 92.57 233.56 C 86.21 241.29 72.96 239.25 67.85 231.12 C 64.01 225.52 64.62 218.41 65.91 212.09 C 60.60 211.21 55.29 210.34 49.98 209.51 M 74.06 220.10 C 74.62 225.47 82.52 228.20 86.24 224.29 C 88.34 222.01 88.26 218.68 88.89 215.83 C 84.15 215.06 79.41 214.27 74.67 213.52 C 74.38 215.70 73.95 217.89 74.06 220.10 Z" />
<path fill="#3e6fb4" opacity="1.00" d=" M 223.24 201.31 C 230.15 198.70 237.86 205.95 235.74 213.00 C 234.29 220.13 224.35 222.97 219.38 217.64 C 214.08 212.90 216.41 203.19 223.24 201.31 Z" />
<path fill="#3e6fb4" opacity="1.00" d=" M 45.44 242.31 C 61.81 243.08 78.18 243.89 94.54 244.70 C 94.36 248.53 94.18 252.37 94.01 256.20 C 80.87 255.58 67.72 254.92 54.58 254.30 C 54.26 261.03 53.94 267.76 53.59 274.50 C 50.36 274.34 47.13 274.19 43.90 274.04 C 44.43 263.46 44.90 252.89 45.44 242.31 Z" />
<path fill="#3e6fb4" opacity="1.00" d=" M 43.73 278.37 C 60.36 281.92 77.00 285.39 93.61 289.02 C 93.91 294.98 94.32 300.94 94.61 306.90 C 78.50 312.28 62.45 317.80 46.33 323.14 C 46.05 318.67 45.79 314.19 45.55 309.72 C 48.91 308.71 52.28 307.75 55.67 306.85 C 55.49 301.70 55.15 296.57 54.79 291.44 C 51.32 290.93 47.85 290.41 44.39 289.86 C 44.18 286.03 43.95 282.20 43.73 278.37 M 64.16 293.00 C 64.32 296.72 64.58 300.44 64.84 304.16 C 71.22 302.47 77.57 300.68 83.93 298.96 C 83.91 298.32 83.88 297.05 83.86 296.42 C 77.30 295.28 70.73 294.10 64.16 293.00 Z" />
<path fill="#3e6fb4" opacity="1.00" d=" M 85.58 316.88 C 88.77 316.38 91.97 316.01 95.18 315.60 C 96.81 327.17 98.47 338.74 100.23 350.30 C 97.02 350.82 93.82 351.39 90.59 351.76 C 90.02 347.96 89.47 344.16 88.98 340.35 C 75.93 342.07 62.92 344.13 49.88 345.95 C 49.29 342.03 48.71 338.11 48.17 334.19 C 61.12 332.31 74.08 330.41 87.04 328.55 C 86.67 324.65 86.12 320.76 85.58 316.88 Z" />
<path fill="#3e6fb4" opacity="1.00" d=" M 53.88 367.96 C 52.98 364.23 52.12 360.49 51.33 356.73 C 68.29 357.44 85.25 358.14 102.21 358.84 C 103.59 364.63 104.85 370.45 106.27 376.23 C 91.32 384.32 76.44 392.58 61.30 400.31 C 60.31 396.01 59.38 391.71 58.27 387.46 C 61.43 385.80 64.64 384.25 67.87 382.74 C 66.72 377.75 65.61 372.74 64.38 367.76 C 60.88 367.84 57.38 367.91 53.88 367.96 M 73.90 367.71 C 74.69 371.37 75.53 375.01 76.38 378.65 C 82.48 375.87 88.55 372.99 94.64 370.18 C 94.39 369.62 93.89 368.51 93.64 367.95 C 87.07 367.53 80.47 367.86 73.90 367.71 Z" />
<path fill="#3e6fb4" opacity="1.00" d=" M 63.83 407.97 C 79.33 402.81 94.91 397.90 110.37 392.60 C 113.98 402.60 117.11 412.77 120.42 422.87 C 117.34 423.85 114.27 424.85 111.21 425.85 C 109.13 419.50 107.03 413.16 104.97 406.80 C 101.37 407.72 97.83 408.85 94.38 410.24 C 96.08 414.95 97.61 419.70 99.08 424.48 C 95.81 425.30 92.53 426.11 89.25 426.91 C 87.76 422.34 86.28 417.77 84.74 413.22 C 78.96 415.14 73.19 417.06 67.38 418.91 C 66.20 415.26 65.01 411.62 63.83 407.97 Z" />
<path fill="#3e6fb4" opacity="1.00" d=" M 106.56 430.70 C 112.40 429.39 119.08 430.17 123.62 434.37 C 128.72 439.17 131.68 446.11 132.20 453.05 C 132.70 459.93 128.26 466.09 122.62 469.60 C 115.87 473.78 108.05 477.01 99.96 476.62 C 94.20 476.39 88.90 472.98 85.84 468.18 C 82.45 462.87 80.18 456.39 81.41 450.05 C 82.48 444.78 86.25 440.51 90.61 437.58 C 95.44 434.35 100.88 431.98 106.56 430.70 M 109.38 442.46 C 105.22 443.50 101.25 445.24 97.59 447.45 C 94.82 449.19 91.95 451.59 91.46 455.04 C 91.03 459.18 93.76 463.82 98.03 464.60 C 102.54 465.34 106.97 463.65 111.05 461.93 C 114.50 460.36 118.11 458.54 120.31 455.33 C 122.79 451.69 121.28 446.59 118.20 443.81 C 115.79 441.70 112.32 441.82 109.38 442.46 Z" />
<path fill="#3e6fb4" opacity="1.00" d=" M 97.51 492.51 C 111.73 484.38 126.12 476.54 140.34 468.42 C 143.53 474.00 146.78 479.55 149.74 485.26 C 152.65 490.86 153.02 498.58 148.14 503.23 C 142.84 508.82 133.80 509.67 127.42 505.40 C 123.23 511.46 119.22 517.63 115.04 523.70 C 112.82 519.83 110.64 515.93 108.48 512.03 C 112.49 507.00 116.55 502.01 120.57 496.98 C 119.96 495.89 119.35 494.81 118.75 493.73 C 113.51 496.60 108.33 499.57 103.10 502.46 C 101.25 499.13 99.40 495.81 97.51 492.51 M 126.47 489.51 C 128.29 492.15 129.56 496.06 133.11 496.75 C 136.39 496.93 140.14 495.16 141.44 492.03 C 142.16 488.61 139.72 485.66 138.25 482.80 C 134.30 485.01 130.31 487.13 126.47 489.51 Z" />
<path fill="#3e6fb4" opacity="1.00" d=" M 119.53 531.91 C 133.01 522.58 146.51 513.27 160.02 503.98 C 163.92 509.07 167.67 514.26 171.56 519.35 C 162.96 529.19 153.71 538.44 144.82 548.02 C 156.66 542.31 168.55 536.69 180.65 531.55 C 184.40 536.65 188.22 541.69 191.99 546.78 C 179.26 557.12 166.52 567.46 153.78 577.78 C 151.10 574.22 148.43 570.66 145.81 567.06 C 155.61 559.27 165.65 551.76 175.31 543.78 C 163.50 548.85 152.03 554.67 140.24 559.78 C 137.18 555.46 133.94 551.28 130.81 547.02 C 139.51 537.28 148.17 527.49 157.04 517.90 C 146.38 524.99 136.25 532.87 125.80 540.28 C 123.68 537.51 121.58 534.72 119.53 531.91 Z" />
<path fill="#3e6fb4" opacity="1.00" d=" M 538.66 564.67 C 542.67 556.25 551.54 550.86 560.45 549.00 C 561.23 552.19 562.01 555.40 562.85 558.59 C 557.84 560.00 552.47 562.11 549.44 566.57 C 547.96 569.00 550.23 572.17 552.99 571.70 C 559.55 571.06 565.75 567.09 572.51 568.64 C 580.45 570.52 584.94 579.93 582.18 587.46 C 578.77 597.28 568.17 602.95 558.18 603.25 C 557.59 600.08 556.99 596.91 556.38 593.75 C 561.60 593.34 567.38 592.01 570.81 587.73 C 573.06 585.19 571.66 580.45 568.16 580.06 C 562.22 579.66 556.97 583.55 551.03 583.41 C 541.98 583.63 534.68 572.96 538.66 564.67 Z" />
<path fill="#3e6fb4" opacity="1.00" d=" M 203.54 558.25 C 207.96 562.32 212.16 566.62 216.48 570.80 C 208.24 585.64 200.00 600.48 191.77 615.32 C 188.48 612.26 185.30 609.08 182.09 605.94 C 183.92 602.92 185.77 599.92 187.64 596.93 C 184.01 593.34 180.33 589.82 176.74 586.20 C 173.78 588.12 170.84 590.07 167.92 592.05 C 165.25 589.36 162.28 586.95 159.90 583.99 C 174.29 575.16 189.08 566.97 203.54 558.25 M 184.70 580.97 C 187.23 583.70 189.90 586.29 192.57 588.88 C 195.89 583.71 199.26 578.57 202.44 573.32 C 203.51 572.16 202.19 571.12 201.58 570.19 C 195.99 573.85 190.32 577.36 184.70 580.97 Z" />
<path fill="#3e6fb4" opacity="1.00" d=" M 500.63 585.66 C 507.92 581.56 515.65 576.13 524.48 577.64 C 533.17 579.37 538.48 587.50 541.98 594.99 C 545.59 602.35 546.21 612.05 540.45 618.52 C 533.93 625.80 524.31 629.41 515.03 631.68 C 507.53 617.99 499.52 604.58 492.06 590.88 C 494.51 588.60 497.82 587.45 500.63 585.66 M 506.45 593.02 C 511.38 601.74 516.33 610.44 521.27 619.15 C 525.30 617.66 530.09 616.28 532.25 612.20 C 534.26 607.73 532.21 602.78 530.18 598.72 C 527.93 594.65 525.48 589.99 520.90 588.23 C 515.55 586.70 510.90 590.71 506.45 593.02 Z" />
<path fill="#3e6fb4" opacity="1.00" d=" M 235.38 599.30 C 240.42 595.71 247.13 595.23 252.89 597.18 C 260.45 599.76 267.46 604.66 271.40 611.74 C 268.62 613.53 265.83 615.30 263.02 617.05 C 259.77 612.24 254.93 607.95 249.03 607.09 C 243.66 606.47 239.67 611.03 237.30 615.27 C 234.79 619.88 232.21 625.47 234.28 630.72 C 236.30 635.28 241.46 636.93 245.93 638.05 C 247.12 635.93 248.29 633.80 249.45 631.67 C 247.74 630.75 246.04 629.83 244.34 628.92 C 245.43 626.32 246.53 623.72 247.67 621.14 C 252.69 623.85 257.72 626.55 262.75 629.25 C 259.29 635.72 255.81 642.18 252.33 648.64 C 242.80 648.05 232.64 645.26 226.18 637.80 C 221.48 632.47 220.71 624.68 222.79 618.08 C 225.08 610.84 229.06 603.73 235.38 599.30 Z" />
<path fill="#3e6fb4" opacity="1.00" d=" M 470.90 599.97 C 477.53 598.21 485.20 599.90 489.63 605.37 C 494.81 611.72 497.86 619.87 498.35 628.04 C 498.78 634.98 494.98 641.75 489.05 645.30 C 481.86 649.64 473.46 651.68 465.16 652.38 C 459.62 637.67 453.54 623.17 447.98 608.47 C 455.65 605.73 463.00 602.02 470.90 599.97 M 462.07 612.96 C 465.75 622.25 469.46 631.54 473.08 640.86 C 477.56 639.90 483.13 639.09 485.49 634.59 C 487.57 629.87 485.82 624.62 484.12 620.08 C 482.44 616.07 480.45 611.34 476.03 609.77 C 471.15 608.43 466.50 611.31 462.07 612.96 Z" />
<path fill="#3e6fb4" opacity="1.00" d=" M 278.19 609.76 C 288.35 612.73 298.50 615.74 308.66 618.76 C 307.75 621.86 306.83 624.96 305.91 628.06 C 299.45 626.16 292.99 624.27 286.54 622.33 C 285.53 625.39 284.68 628.51 283.86 631.64 C 288.68 633.02 293.49 634.44 298.28 635.90 C 297.08 639.03 295.92 642.17 294.83 645.34 C 290.14 644.14 285.54 642.66 280.89 641.34 C 279.94 644.53 278.99 647.73 278.07 650.93 C 284.53 652.85 291.01 654.73 297.46 656.68 C 296.55 659.74 295.65 662.82 294.75 665.89 C 284.58 662.96 274.46 659.87 264.30 656.95 C 268.84 641.19 273.57 625.49 278.19 609.76 Z" />
<path fill="#3e6fb4" opacity="1.00" d=" M 414.92 616.88 C 420.73 615.44 426.55 614.08 432.35 612.64 C 440.59 627.51 448.84 642.38 456.99 657.30 C 452.62 658.34 448.26 659.41 443.90 660.45 C 442.32 657.35 440.81 654.23 439.37 651.08 C 434.29 651.96 429.33 653.41 424.31 654.55 C 424.40 658.07 424.50 661.59 424.59 665.12 C 420.85 666.02 417.12 666.93 413.39 667.82 C 413.89 650.84 414.46 633.86 414.92 616.88 M 424.18 625.32 C 423.84 631.90 424.19 638.51 424.16 645.10 C 427.79 644.25 431.42 643.37 435.04 642.48 C 432.15 636.41 429.28 630.32 426.29 624.29 C 425.76 624.55 424.71 625.06 424.18 625.32 Z" />
<path fill="#3e6fb4" opacity="1.00" d=" M 319.38 621.45 C 326.42 619.59 334.37 620.50 340.68 624.22 C 346.75 627.84 349.10 635.24 349.05 641.97 C 348.91 649.63 347.74 657.77 343.12 664.11 C 339.69 668.87 333.77 671.30 328.00 671.26 C 320.71 671.34 312.50 669.02 308.49 662.45 C 304.14 655.20 304.74 646.20 306.25 638.21 C 307.60 631.01 311.91 623.55 319.38 621.45 M 323.36 631.47 C 319.69 633.64 318.58 638.14 317.91 642.06 C 317.24 647.06 316.54 652.51 318.75 657.25 C 321.46 662.75 330.52 662.94 333.40 657.48 C 336.61 651.44 337.32 644.15 336.35 637.46 C 335.52 631.61 328.29 628.84 323.36 631.47 Z" />
<path fill="#3e6fb4" opacity="1.00" d=" M 370.42 623.05 C 380.07 622.71 390.46 618.86 399.62 623.48 C 408.47 627.94 409.60 641.16 402.94 648.00 C 398.56 652.95 391.73 654.14 385.46 654.61 C 386.05 659.98 386.62 665.35 387.23 670.72 C 383.42 671.13 379.62 671.57 375.81 672.00 C 373.92 655.70 372.17 639.37 370.42 623.05 M 383.00 631.41 C 383.38 636.21 383.96 640.99 384.49 645.77 C 386.62 645.48 388.81 645.38 390.87 644.70 C 396.37 642.68 396.55 633.07 390.75 631.32 C 388.19 630.77 385.57 631.26 383.00 631.41 Z" />
</g>
<g id="#9dc139ff">
<path fill="#9dc139" opacity="1.00" d=" M 357.99 188.20 C 407.08 182.99 457.53 200.10 494.72 232.24 C 508.68 244.28 520.21 259.17 528.09 275.86 C 537.14 294.50 541.43 314.89 547.55 334.57 C 552.32 349.92 559.02 365.03 569.77 377.17 C 576.56 385.18 584.99 391.57 593.74 397.27 C 593.73 397.59 593.71 398.23 593.70 398.55 C 579.44 404.57 563.57 405.53 548.30 404.20 C 546.26 403.98 544.24 403.72 542.22 403.46 C 527.42 400.65 513.11 395.39 500.05 387.88 C 481.67 377.37 465.49 363.32 451.31 347.68 C 441.50 337.09 433.25 325.15 423.08 314.88 C 403.84 294.67 380.29 277.53 353.04 270.19 C 334.74 265.12 315.24 265.15 296.77 269.37 C 314.97 254.82 336.87 244.40 360.01 240.96 C 380.02 237.81 400.80 241.20 419.06 249.85 C 446.08 262.49 468.05 283.76 486.08 307.17 C 477.15 290.49 465.65 275.12 451.82 262.18 C 432.81 244.31 408.24 231.98 382.13 229.38 C 369.48 227.63 356.64 228.70 344.06 230.59 C 318.50 234.87 293.21 245.16 274.40 263.39 C 260.97 276.19 252.96 293.86 250.00 312.01 C 246.15 336.13 249.19 361.04 256.67 384.18 C 265.25 410.45 280.43 434.39 300.01 453.83 C 282.90 442.70 269.29 426.93 258.16 409.97 C 250.99 398.76 244.42 386.99 240.57 374.18 C 233.60 351.12 232.90 326.38 237.26 302.76 C 243.29 273.79 256.64 245.81 277.99 225.02 C 299.37 203.97 328.30 191.38 357.99 188.20 Z" />
</g>
<g id="#dbde1bff">
<path fill="#dbde1b" opacity="1.00" d=" M 311.10 299.06 C 329.58 292.72 350.37 295.02 367.67 303.81 C 386.42 313.27 402.83 328.73 410.75 348.45 C 416.80 362.28 427.72 375.45 442.95 379.16 C 435.99 382.10 428.33 381.92 420.94 381.53 C 404.12 379.72 388.73 370.84 376.91 359.01 C 362.72 345.32 344.89 334.40 325.04 331.89 C 315.72 330.88 305.03 332.14 298.24 339.26 C 296.30 341.03 295.41 343.51 294.63 345.94 C 292.79 337.04 297.42 327.69 304.97 322.92 C 317.30 315.16 333.06 314.25 346.87 318.12 C 351.18 319.12 354.97 321.68 359.43 322.15 C 358.81 318.52 355.28 317.07 352.56 315.28 C 345.52 311.03 337.25 309.00 329.04 309.29 C 314.53 308.83 299.21 313.20 288.99 323.94 C 277.39 335.83 272.55 352.78 272.02 369.04 C 271.56 380.56 273.34 392.14 276.86 403.10 C 271.25 389.72 266.75 375.56 266.46 360.94 C 265.88 347.64 269.22 333.92 277.00 322.99 C 285.22 311.41 297.90 303.74 311.10 299.06 Z" />
</g>
<g id="#c83a2eff">
<path fill="#c83a2e" opacity="1.00" d=" M 302.09 411.99 C 300.48 399.55 303.51 386.73 310.05 376.08 C 317.97 396.00 330.83 414.05 347.46 427.63 C 359.91 437.86 370.31 450.86 376.42 465.85 C 383.49 482.88 384.29 502.10 380.17 519.96 C 378.29 528.86 374.96 537.34 371.57 545.76 C 371.41 545.55 371.08 545.12 370.92 544.91 C 370.80 544.65 370.57 544.12 370.45 543.86 L 371.78 543.81 C 370.42 526.52 365.44 509.43 356.34 494.60 C 348.23 480.87 336.94 469.45 325.79 458.19 C 313.26 445.87 304.27 429.54 302.09 411.99 Z" />
<path fill="#c83a2e" opacity="1.00" d=" M 432.51 428.52 C 449.62 414.79 462.92 396.43 470.99 376.06 C 477.31 386.43 480.41 398.83 479.07 410.95 C 477.12 428.91 468.00 445.67 455.19 458.23 C 444.36 469.16 433.43 480.24 425.38 493.47 C 415.72 508.86 410.37 526.75 409.24 544.84 C 400.46 525.28 395.69 503.20 399.86 481.87 C 403.74 460.83 416.25 442.11 432.51 428.52 Z" />
<path fill="#c83a2e" opacity="1.00" d=" M 386.57 380.81 C 401.65 378.17 417.05 390.61 417.61 405.90 C 419.04 420.79 406.03 435.05 391.05 434.80 C 376.85 435.55 363.71 423.22 363.42 409.04 C 362.37 395.48 373.15 382.55 386.57 380.81 Z" />
</g>
<g id="#db950fff">
<path fill="#db950f" opacity="1.00" d=" M 234.57 399.78 C 238.77 400.94 241.85 404.21 245.05 406.98 C 260.15 421.22 271.00 439.23 280.67 457.41 C 285.45 465.89 291.95 473.50 300.01 479.00 C 307.23 484.09 316.01 486.09 323.59 490.53 C 345.03 501.84 361.96 521.18 370.45 543.86 C 370.57 544.12 370.80 544.65 370.92 544.91 C 371.08 545.12 371.41 545.55 371.57 545.76 L 371.77 546.01 C 372.27 547.94 372.68 549.91 373.06 551.89 C 336.02 548.08 300.92 529.65 275.85 502.24 C 250.26 474.59 235.31 437.44 234.57 399.78 Z" />
<path fill="#db950f" opacity="1.00" d=" M 512.10 440.04 C 520.46 426.65 529.70 413.29 542.22 403.46 C 544.24 403.72 546.26 403.98 548.30 404.20 C 546.43 439.78 532.22 474.64 508.21 501.02 C 483.06 529.15 447.43 548.06 409.80 551.90 C 411.54 543.87 415.55 536.57 419.41 529.39 C 431.08 508.20 451.15 492.39 473.67 484.02 C 482.67 480.37 490.31 473.95 496.32 466.40 C 502.69 458.31 506.55 448.65 512.10 440.04 Z" />
</g>
</svg>
